<?xml version="1.0" encoding="UTF-8"?>
<svg version="1.1" xmlns="http://www.w3.org/2000/svg" width="4500" height="1459">
<path d="M0 0 C1.07847198 -0.00701431 2.15694397 -0.01402863 3.26809692 -0.02125549 C6.73346177 -0.038669 10.19865549 -0.04510889 13.6640625 -0.046875 C14.8502417 -0.04754974 16.0364209 -0.04822449 17.25854492 -0.04891968 C35.46608846 -0.03247078 53.25624192 0.5016282 71.2890625 3.203125 C72.47145508 3.37473145 73.65384766 3.54633789 74.87207031 3.72314453 C156.74831322 15.8968777 231.30780897 52.475641 292.2890625 108.203125 C293.30195349 109.1225389 294.31498066 110.04180279 295.328125 110.9609375 C302.72891744 117.68987029 309.89223343 124.46969922 316.421875 132.05859375 C318.42059895 134.35419929 320.47851479 136.587921 322.5390625 138.828125 C328.12583752 145.02935074 333.21163029 151.58490773 338.2890625 158.203125 C339.02261963 159.15131104 339.02261963 159.15131104 339.77099609 160.11865234 C386.37460022 220.44974364 414.21207918 294.04675433 421.5390625 369.765625 C421.61930664 370.57233643 421.69955078 371.37904785 421.78222656 372.21020508 C422.26692727 377.82991522 422.32596087 383.41470111 422.30761719 389.05053711 C422.30560806 390.22914936 422.30560806 390.22914936 422.30355835 391.43157196 C422.30008511 393.35542591 422.29476143 395.27927636 422.2890625 397.203125 C382.55912963 397.22598981 342.82919762 397.24362243 303.0992595 397.25419033 C298.41391062 397.25544111 293.72856175 397.25673542 289.04321289 397.25805664 C287.64399864 397.25845011 287.64399864 397.25845011 286.21651744 397.25885152 C271.09198562 397.26320855 255.96745758 397.27109628 240.842928 397.2802778 C225.33576324 397.28961342 209.82860046 397.29518042 194.32143301 397.29721349 C184.74468449 397.29858891 175.16794665 397.30294051 165.59120142 397.31104147 C159.03332942 397.3163078 152.47546298 397.31792955 145.91758902 397.31662638 C142.12818417 397.31598282 138.33879807 397.31700249 134.54939651 397.32233047 C130.45093307 397.32805127 126.35251007 397.32612622 122.25404358 397.32337952 C120.43744904 397.32774878 120.43744904 397.32774878 118.58415562 397.33220631 C117.49534515 397.33021526 116.40653468 397.32822421 115.28472996 397.32617283 C113.86362662 397.32674241 113.86362662 397.32674241 112.41381413 397.3273235 C110.2890625 397.203125 110.2890625 397.203125 109.2890625 396.203125 C108.84491662 393.9583877 108.43462835 391.7069304 108.0390625 389.453125 C104.86316744 372.75778694 97.31957267 358.06442524 86.2890625 345.203125 C85.83273437 344.60242188 85.37640625 344.00171875 84.90625 343.3828125 C72.19543224 327.01858604 48.87647364 316.273526 28.7578125 313.48828125 C1.38909758 311.23837563 -24.50714342 316.92878426 -45.9375 334.83984375 C-66.89931196 353.06993021 -78.00235234 376.76425508 -79.9296875 404.33203125 C-80.74236376 431.38737854 -69.69640131 456.27018925 -51.4609375 475.890625 C-32.64938976 493.56473032 -10.95687087 500.04738333 14.2890625 503.203125 C14.2890625 471.523125 14.2890625 439.843125 14.2890625 407.203125 C41.27628671 407.203125 41.27628671 407.203125 53.4140625 408.390625 C54.10184784 408.45625641 54.78963318 408.52188782 55.4982605 408.58950806 C126.38798039 415.42771548 199.10050587 441.10101318 255.67724609 484.95605469 C257.31432828 486.22267326 258.96561757 487.46848302 260.62109375 488.7109375 C272.00323365 497.29537359 282.78224352 506.57187427 293.2890625 516.203125 C293.84271484 516.70634277 294.39636719 517.20956055 294.96679688 517.72802734 C307.54376899 529.16627361 307.54376899 529.16627361 312.40234375 535.00390625 C314.47634874 537.42143173 316.65014826 539.72126272 318.84130859 542.03222656 C325.81980095 549.41413479 332.17901424 557.09401082 338.2890625 565.203125 C338.83175781 565.91597656 339.37445312 566.62882813 339.93359375 567.36328125 C395.62634849 640.65645509 424.74890936 730.56286776 419.5390625 871.140625 C411.67538877 925.05871999 394.21509346 976.31722496 366.2890625 1023.203125 C365.74604492 1024.1199707 365.20302734 1025.03681641 364.64355469 1025.98144531 C357.91585389 1037.28222377 350.77188473 1048.05773715 342.67382812 1058.42138672 C341.35516805 1060.11806888 340.06036128 1061.82995409 338.7734375 1063.55078125 C324.11859544 1083.07290359 307.23761396 1102.31330452 288.65234375 1118.1796875 C286.75686384 1119.80259427 284.88478787 1121.4443802 283.01953125 1123.1015625 C260.09741575 1143.38319293 234.29799538 1160.82329979 207.2890625 1175.203125 C206.36625488 1175.69474121 205.44344727 1176.18635742 204.49267578 1176.69287109 C169.95671922 1194.89827894 133.44667909 1207.32846187 95.2890625 1215.203125 C94.27972656 1215.41163086 93.27039063 1215.62013672 92.23046875 1215.83496094 C85.61032389 1217.16662508 78.97323563 1218.24824312 72.2890625 1219.203125 C71.29390625 1219.35265625 70.29875 1219.5021875 69.2734375 1219.65625 C30.71722998 1225.21908591 -10.27458516 1224.39517549 -48.7109375 1218.203125 C-49.36956787 1218.0989325 -50.02819824 1217.99473999 -50.70678711 1217.88739014 C-126.02833749 1205.89393847 -198.72041442 1172.10689566 -255.12890625 1120.5390625 C-256.54577303 1119.25723749 -257.96909676 1117.98198787 -259.42016602 1116.73901367 C-265.31264959 1111.68373798 -270.79707687 1106.265439 -276.2734375 1100.765625 C-277.18029297 1099.86263672 -278.08714844 1098.95964844 -279.02148438 1098.02929688 C-284.12698921 1092.9163874 -289.04815599 1087.72246621 -293.7109375 1082.203125 C-294.52268433 1081.25143433 -294.52268433 1081.25143433 -295.35083008 1080.28051758 C-348.16068985 1018.01100861 -380.71885633 941.85978108 -390.4609375 860.890625 C-390.57655029 859.9517041 -390.69216309 859.0127832 -390.8112793 858.04541016 C-392.02834526 847.09458882 -392.22958406 836.27425412 -392.7109375 825.203125 C-289.4209375 825.203125 -186.1309375 825.203125 -79.7109375 825.203125 C-77.7309375 833.618125 -77.7309375 833.618125 -75.7109375 842.203125 C-71.05713248 856.03526771 -64.42392414 868.26404142 -54.7109375 879.203125 C-54.10894531 879.88761719 -53.50695312 880.57210937 -52.88671875 881.27734375 C-37.31144629 897.89749821 -13.57024932 908.55194851 9.15234375 909.44140625 C34.21597045 909.94967029 56.79718231 903.58608523 76.2890625 887.203125 C77.02898437 886.60886719 77.76890625 886.01460937 78.53125 885.40234375 C84.86978909 880.10560607 89.61427815 873.98510381 94.2890625 867.203125 C94.8459375 866.40132812 95.4028125 865.59953125 95.9765625 864.7734375 C108.9774675 844.66266258 112.87061854 818.2955195 108.10620117 795.00366211 C101.95421089 769.24387697 86.57656367 747.45293502 64.11328125 733.42578125 C48.8414759 724.32136153 32.84480259 721.39759251 15.2890625 719.203125 C15.2890625 750.883125 15.2890625 782.563125 15.2890625 815.203125 C-12.72201705 815.203125 -12.72201705 815.203125 -23.8359375 814.015625 C-25.12669189 813.8825293 -26.41744629 813.74943359 -27.74731445 813.61230469 C-94.34914601 806.50977073 -159.59906054 783.58461074 -214.7109375 745.203125 C-215.24847656 744.83010254 -215.78601563 744.45708008 -216.33984375 744.07275391 C-238.5392281 728.61788638 -258.92461805 711.02136379 -278.0859375 691.953125 C-278.73997559 691.30375977 -279.39401367 690.65439453 -280.06787109 689.98535156 C-284.48383585 685.55476068 -288.63931254 680.95047694 -292.7109375 676.203125 C-293.60020997 675.18224772 -294.48952881 674.16141083 -295.37890625 673.140625 C-358.15449173 599.95110518 -392.8904021 505.19057149 -392.9609375 408.890625 C-392.96161224 408.04952179 -392.96228699 407.20841858 -392.96298218 406.34182739 C-392.86730499 330.23554114 -371.62482501 254.54806447 -330.7109375 190.203125 C-330.29279785 189.54344727 -329.8746582 188.88376953 -329.44384766 188.20410156 C-319.33934851 172.38659586 -308.0914141 157.30592649 -295.7109375 143.203125 C-295.07800781 142.4709375 -294.44507813 141.73875 -293.79296875 140.984375 C-292.11181028 139.04546455 -290.41354355 137.12322466 -288.7109375 135.203125 C-288.06705078 134.47512695 -287.42316406 133.74712891 -286.75976562 132.99707031 C-281.29216496 126.86408707 -275.64788387 120.94752481 -269.8359375 115.140625 C-268.95897217 114.26374023 -268.08200684 113.38685547 -267.1784668 112.48339844 C-261.98667466 107.33729599 -256.76890148 102.47236633 -250.9921875 97.98828125 C-248.7285906 96.21693915 -246.6343816 94.34009763 -244.5234375 92.390625 C-227.4881837 77.15804356 -207.55091037 64.45250171 -187.7109375 53.203125 C-186.86257324 52.72020996 -186.01420898 52.23729492 -185.14013672 51.73974609 C-129.47417802 20.27216972 -64.31685748 0.28211699 0 0 Z " fill="#FF3758" transform="translate(769.7109375,131.796875)"/>
<path d="M0 0 C189.95494924 0 189.95494924 0 211.5625 5.8125 C212.55515869 6.07184326 213.54781738 6.33118652 214.57055664 6.59838867 C233.26864755 11.63395332 251.69237072 19.72374891 266 33 C267.38445312 34.24716797 267.38445312 34.24716797 268.796875 35.51953125 C286.71097783 52.41916141 294.89949326 74.58250671 296 99 C296.061875 100.15628906 296.061875 100.15628906 296.125 101.3359375 C296.75432019 124.38478961 290.71189813 146.66735336 275.5078125 164.37109375 C263.01466258 177.46749545 248.84569932 184.5000308 232.0078125 190.24145508 C229.92264655 191.02922388 227.9757509 191.97087078 226 193 C226.5576001 193.12004395 227.1152002 193.24008789 227.68969727 193.36376953 C254.58919395 199.23827697 280.70490118 209.22291305 296.9296875 232.8046875 C303.20406777 242.95679635 307.30071168 254.18401844 309 266 C309.11085938 266.75023437 309.22171875 267.50046875 309.3359375 268.2734375 C312.52929427 294.25182636 308.15084697 322.29279887 292.8828125 344.01171875 C290.98552495 346.40659681 289.02115675 348.70964988 287 351 C286.236875 352.010625 285.47375 353.02125 284.6875 354.0625 C265.0330951 375.54522164 237.27489191 386.11349143 209.4375 391.875 C208.5314502 392.06602295 207.62540039 392.2570459 206.69189453 392.45385742 C139.00602899 405.37123093 68.90743742 396 0 396 C0 265.32 0 134.64 0 0 Z M86 67 C86 98.35 86 129.7 86 162 C98.705 162.0825 111.41 162.165 124.5 162.25 C130.46803711 162.30462402 130.46803711 162.30462402 136.55664062 162.36035156 C140.19280322 162.37374748 140.19280322 162.37374748 143.82897949 162.3817749 C145.42082218 162.38782833 147.01264916 162.40170631 148.60437012 162.42230225 C166.29986537 162.63937933 183.84734163 160.2080406 197.4453125 147.68359375 C206.96018554 137.37979908 210.37907544 125.20103491 210.20703125 111.4375 C209.44120766 98.72193852 204.39229386 88.9184623 195.25 80.125 C180.14016345 67.32392818 160.96479072 66.83779361 142.15234375 66.90234375 C140.71195515 66.9038169 139.27156601 66.90483531 137.83117676 66.90539551 C132.53327626 66.91060513 127.23538727 66.92456632 121.9375 66.9375 C110.078125 66.958125 98.21875 66.97875 86 67 Z M86 229 C86 261.67 86 294.34 86 328 C98.705 328.04125 111.41 328.0825 124.5 328.125 C128.47869141 328.14320801 132.45738281 328.16141602 136.55664062 328.18017578 C140.19280835 328.18687374 140.19280835 328.18687374 143.82897949 328.19088745 C145.42078782 328.1939141 147.01259222 328.20085278 148.60437012 328.21115112 C170.12695706 328.34316383 192.47839195 327.15164502 209.27734375 311.9375 C217.94973376 302.89366684 221.82770178 291.63255447 222.3125 279.25 C221.92895819 265.65557379 217.83338943 253.28853984 207.9375 243.6875 C194.99866306 233.10719041 178.87055535 228.80963414 162.40258789 228.88647461 C161.55920836 228.88635407 160.71582884 228.88623354 159.84689236 228.88610935 C157.13878606 228.88685092 154.4307501 228.89444444 151.72265625 228.90234375 C150.04195183 228.90381551 148.36124696 228.90483478 146.68054199 228.90539551 C140.47452097 228.91062121 134.26850978 228.92458248 128.0625 228.9375 C114.181875 228.958125 100.30125 228.97875 86 229 Z " fill="#000000" transform="translate(1536,189)"/>
<path d="M0 0 C231.58451609 0 231.58451609 0 272.75 40.3125 C297.24278082 65.10286683 307.24802937 99.1405665 307.18334961 133.31811523 C306.77535903 162.49104789 297.60982831 190.3554358 279 213 C278.26394531 213.91265625 277.52789063 214.8253125 276.76953125 215.765625 C266.63065506 227.65375453 253.40569316 236.19531563 240 244 C240.30067383 244.57105469 240.60134766 245.14210938 240.91113281 245.73046875 C246.75833098 256.85031046 252.53550947 267.99810857 258.125 279.25 C261.64628543 286.33797019 265.22061696 293.38756145 268.9375 300.375 C272.91682455 307.85580729 276.72819821 315.41258283 280.5 323 C284.62583831 331.29954712 288.82874114 339.54433272 293.18481445 347.72509766 C297.39110705 355.66229963 301.37172037 363.71043036 305.3659668 371.75585938 C308.74538711 378.54615535 312.21418413 385.26062838 315.92578125 391.875 C317 394 317 394 317 396 C285.65 396 254.3 396 222 396 C210.55639136 374.25714358 210.55639136 374.25714358 207.15234375 367.18359375 C206.30680858 365.44339869 205.46118226 363.70324791 204.61547852 361.96313477 C204.18067169 361.06571564 203.74586487 360.16829651 203.29788208 359.24368286 C187.83411299 327.34517108 171.8795549 295.69321953 156 264 C132.57 263.67 109.14 263.34 85 263 C85 306.89 85 350.78 85 396 C56.95 396 28.9 396 0 396 C0 265.32 0 134.64 0 0 Z M85 71 C85 110.93 85 150.86 85 192 C96.900625 192.04125 108.80125 192.0825 121.0625 192.125 C124.78926025 192.14320801 128.51602051 192.16141602 132.35571289 192.18017578 C135.7617093 192.18687375 135.7617093 192.18687375 139.16770935 192.19088745 C140.65872907 192.19391405 142.14974459 192.20085265 143.64073181 192.21115112 C166.00925642 192.35762898 186.78965405 189.77408942 203.8125 173.6875 C216.73093253 160.05393996 219.4461648 144.2858401 219.20703125 126.20703125 C218.77405552 111.32382258 212.67378864 97.52742133 202.03955078 87.13696289 C185.5713615 72.2853294 164.58951889 70.83290863 143.49609375 70.90234375 C141.99613482 70.90381674 140.49617537 70.90483525 138.99621582 70.90539551 C133.47663597 70.91060704 127.95706717 70.92456825 122.4375 70.9375 C103.9059375 70.9684375 103.9059375 70.9684375 85 71 Z " fill="#000000" transform="translate(1897,189)"/>
<path d="M0 0 C172.97436233 0 172.97436233 0 195.625 5.6875 C197.17453369 6.07204346 197.17453369 6.07204346 198.75537109 6.46435547 C222.97775587 12.71229606 246.29322953 23.5087198 266 39 C267.34964844 40.01900391 267.34964844 40.01900391 268.7265625 41.05859375 C308.43182731 72.03807028 330.34224923 118.60381213 336.8125 167.8125 C343.24434037 222.7754995 332.4158936 281.02018644 297.88891602 325.27172852 C281.34891143 345.90747537 261.44141099 361.8398433 238 374 C236.84757812 374.60328125 235.69515625 375.2065625 234.5078125 375.828125 C219.27878936 383.35784245 202.93063236 388.47743416 186.3125 391.875 C185.38969238 392.06594238 184.46688477 392.25688477 183.51611328 392.45361328 C123.4037655 403.85191474 61.18345881 396 0 396 C0 265.32 0 134.64 0 0 Z M86 71 C86 154.49 86 237.98 86 324 C155.08052286 327.46829432 155.08052286 327.46829432 213.4609375 297.546875 C214.29882812 296.70640625 215.13671875 295.8659375 216 295 C216.97839844 294.11054688 216.97839844 294.11054688 217.9765625 293.203125 C240.66805447 272.27307304 249.59053212 236.94888749 250.91015625 207.2734375 C250.93980469 206.19320312 250.96945313 205.11296875 251 204 C251.03996094 203.08476562 251.07992187 202.16953125 251.12109375 201.2265625 C251.69327261 177.73357174 248.03604956 153.35633294 238 132 C237.56929199 131.07912598 237.56929199 131.07912598 237.12988281 130.13964844 C232.33820809 120.07454142 226.27871829 111.42223661 219 103 C218.34386719 102.24074219 217.68773438 101.48148438 217.01171875 100.69921875 C205.14372418 88.01799972 189.61701919 79.97822695 173.125 75.1875 C172.13838379 74.8949231 172.13838379 74.8949231 171.13183594 74.59643555 C144.49363522 67.44475376 111.1386491 71 86 71 Z " fill="#000000" transform="translate(2790,189)"/>
<path d="M0 0 C0.85050934 0.00182281 1.70101868 0.00364563 2.57730103 0.00552368 C53.53399244 0.18875029 100.5874023 17.0468773 137.875 52.3125 C138.73480469 53.10785156 139.59460937 53.90320313 140.48046875 54.72265625 C171.27094611 84.18021251 188.05752079 124.91462519 194.875 166.3125 C195.00777344 167.11268555 195.14054687 167.91287109 195.27734375 168.73730469 C203.8959557 223.86252773 190.71406252 283.2352059 157.875 328.3125 C155.01291874 332.11586676 152.02466086 335.74464887 148.875 339.3125 C148.43752441 339.81555664 148.00004883 340.31861328 147.54931641 340.83691406 C116.7825652 376.06307968 72.34253354 397.77189076 25.875 402.3125 C24.83859375 402.42207031 23.8021875 402.53164062 22.734375 402.64453125 C-31.92659734 407.50184514 -85.96454595 394.0692585 -128.48730469 358.70068359 C-147.18376895 342.85272656 -161.66885296 323.92987158 -173.125 302.3125 C-173.49463867 301.61721191 -173.86427734 300.92192383 -174.24511719 300.20556641 C-201.16899459 248.62835057 -202.5613892 184.64863452 -185.4609375 129.8671875 C-182.17052964 119.80385786 -178.04118272 110.33274318 -173.03320312 101.01123047 C-172.22479156 99.49915314 -171.44615838 97.97124034 -170.671875 96.44140625 C-163.42548892 82.42756191 -153.76201517 69.89850378 -143.125 58.3125 C-142.65513672 57.7973584 -142.18527344 57.2822168 -141.70117188 56.75146484 C-130.02201053 44.10174732 -116.07300003 33.78654227 -101.125 25.3125 C-100.52880859 24.96268066 -99.93261719 24.61286133 -99.31835938 24.25244141 C-69.08916497 6.59280132 -34.66700866 -0.15516387 0 0 Z M-52.125 86.3125 C-53.11371094 86.85777344 -54.10242187 87.40304687 -55.12109375 87.96484375 C-79.162739 102.23629935 -95.90199407 128.55409392 -102.89160156 155.23925781 C-105.70436921 166.93132887 -108.25585172 178.57363271 -108.328125 190.640625 C-108.33518463 191.42303558 -108.34224426 192.20544617 -108.34951782 193.01156616 C-108.7177131 216.34813695 -108.7177131 216.34813695 -105.125 239.3125 C-104.93695801 240.09044922 -104.74891602 240.86839844 -104.55517578 241.66992188 C-100.16526755 259.34131062 -93.01357196 277.31768498 -81.125 291.3125 C-80.08085937 292.56160156 -80.08085937 292.56160156 -79.015625 293.8359375 C-61.13598316 314.44190771 -38.36918979 327.25976837 -11.125 330.3125 C19.12565416 332.09523303 45.96986288 325.05287727 69.03564453 304.99291992 C93.20782181 283.14650194 106.5913719 250.1305319 108.74609375 217.89257812 C110.75863866 177.61118682 104.02288991 136.72774165 76.46826172 105.72998047 C57.23161112 84.66809701 32.06746557 73.89437151 3.875 72.3125 C-16.23597098 71.79510365 -34.62060602 76.5518096 -52.125 86.3125 Z " fill="#FF3758" transform="translate(3288.125,706.6875)"/>
<path d="M0 0 C165.39643008 0 165.39643008 0 185.3125 4.125 C186.34681152 4.33817871 187.38112305 4.55135742 188.44677734 4.77099609 C237.21600705 15.33507511 279.77557505 43.03491346 307 85 C337.50254924 133.58978062 344.08232897 195.09661306 332.05078125 250.55664062 C324.3786105 283.74182362 308.88446123 314.57501348 285 339 C284.06788902 339.99243754 283.13691418 340.98594328 282.20703125 341.98046875 C249.81846719 376.09634931 204.52403012 390.64423175 159 396 C106.53 396 54.06 396 0 396 C0 265.32 0 134.64 0 0 Z M85 72 C85 155.49 85 238.98 85 325 C127.99290142 326.92138629 127.99290142 326.92138629 172.0625 320.875 C172.79726562 320.66472168 173.53203125 320.45444336 174.2890625 320.23779297 C198.65821765 312.84449225 219.83893664 295.75501591 232.16577148 273.48242188 C252.97666041 234.45604631 255.10050884 187.81032231 242.328125 145.78955078 C237.60052691 131.02611402 230.13942944 117.72018682 220 106 C219.236875 104.989375 218.47375 103.97875 217.6875 102.9375 C199.96988594 83.5717358 177.19623174 76.19937196 152 72 C129.89 72 107.78 72 85 72 Z " fill="#FF3758" transform="translate(2576,710)"/>
<path d="M0 0 C20.62500766 18.47521776 34.62367061 43.83396561 37.85595703 71.45532227 C37.85595703 76.07532227 37.85595703 80.69532227 37.85595703 85.45532227 C10.13595703 85.45532227 -17.58404297 85.45532227 -46.14404297 85.45532227 C-48.12404297 77.04032227 -48.12404297 77.04032227 -50.14404297 68.45532227 C-56.96669559 53.60601949 -66.46045265 42.4900273 -81.70654297 35.92016602 C-85.16013227 34.64367773 -88.61507804 33.50378286 -92.14404297 32.45532227 C-92.92263672 32.22071289 -93.70123047 31.98610352 -94.50341797 31.74438477 C-115.3448108 26.33815881 -139.09995197 29.33777744 -158.01123047 39.48266602 C-167.41486786 45.40390901 -172.33300834 52.858997 -175.74951172 63.30688477 C-177.71292791 73.99875513 -176.88843565 85.52601191 -170.65966797 94.62329102 C-152.0089205 115.956115 -111.51420455 118.66904145 -85.39086914 123.74951172 C6.11496842 141.54678679 6.11496842 141.54678679 31.64404297 178.62719727 C47.263092 202.61975516 49.72899346 234.80399548 44.23095703 262.45532227 C39.99288567 281.29204613 30.94741532 299.24288284 17.85595703 313.45532227 C17.35999023 313.99898437 16.86402344 314.54264648 16.35302734 315.1027832 C-12.65890053 346.57186166 -55.10454658 361.30366508 -97.14404297 363.45532227 C-139.21818335 365.09068708 -184.82025497 357.54785703 -219.14404297 331.45532227 C-220.43955078 330.47112305 -220.43955078 330.47112305 -221.76123047 329.46704102 C-224.26378336 327.508356 -226.71071979 325.49915312 -229.14404297 323.45532227 C-230.28486328 322.5175293 -230.28486328 322.5175293 -231.44873047 321.56079102 C-253.73094274 302.63247575 -268.86675389 273.44831597 -272.14404297 244.45532227 C-272.33610862 241.86292582 -272.51628123 239.27209607 -272.68017578 236.67797852 C-272.72526276 235.98256958 -272.77034973 235.28716064 -272.81680298 234.57067871 C-272.92716546 232.86564242 -273.03577974 231.16049313 -273.14404297 229.45532227 C-263.5379686 229.43207028 -253.93190403 229.41434197 -244.32580757 229.40351009 C-239.86449305 229.39830926 -235.40319791 229.3912629 -230.94189453 229.37988281 C-226.63008308 229.36895388 -222.31829016 229.36302438 -218.00646591 229.36044502 C-216.36798689 229.35860871 -214.7295088 229.35502312 -213.09103775 229.34959221 C-204.71523251 229.32295385 -196.47032342 229.4045384 -188.14404297 230.45532227 C-187.98548828 231.47110352 -187.82693359 232.48688477 -187.66357422 233.53344727 C-184.55205262 252.34484409 -177.00152229 268.20461636 -161.13623047 279.61938477 C-138.79745542 293.99156052 -111.03303196 297.57635115 -85.14404297 292.45532227 C-71.81383294 289.40237167 -55.80483485 283.90854826 -48.09521484 271.80932617 C-41.82751125 260.8289517 -39.05335902 249.97689429 -41.82763672 237.34204102 C-45.45959817 226.44615667 -52.00149647 220.92337319 -62.00317383 215.49072266 C-71.26089802 211.01335827 -81.00063503 208.20109776 -90.95654297 205.76782227 C-91.61301819 205.60468536 -92.26949341 205.44154846 -92.94586182 205.27346802 C-106.39143284 201.9395326 -119.94964715 199.16938921 -133.51904297 196.39282227 C-222.94673992 178.06271221 -222.94673992 178.06271221 -247.99804688 141.11279297 C-264.152213 115.9867668 -267.64498068 84.18479471 -261.45654297 55.20532227 C-254.48655907 25.48237753 -235.7495558 1.13967127 -210.10107422 -15.16186523 C-203.68465855 -19.10235545 -196.99777393 -22.43867981 -190.14404297 -25.54467773 C-189.53093262 -25.8229541 -188.91782227 -26.10123047 -188.28613281 -26.38793945 C-128.68800364 -52.91334908 -49.3323494 -43.07559684 0 0 Z " fill="#FF3758" transform="translate(1786.14404296875,746.544677734375)"/>
<path d="M0 0 C33.99 0 67.98 0 103 0 C108.62362972 13.49671133 108.62362972 13.49671133 110.34570312 18.33276367 C110.93539635 19.98072937 110.93539635 19.98072937 111.53700256 21.6619873 C112.15290504 23.39744812 112.15290504 23.39744812 112.78125 25.16796875 C113.23175165 26.42927988 113.68260312 27.69046611 114.1337738 28.95153809 C115.09271791 31.63312021 116.05006171 34.3152652 117.006073 36.99789429 C119.56940795 44.18926697 122.14499342 51.37625252 124.72265625 58.5625 C124.98504152 59.29417578 125.2474268 60.02585155 125.51776314 60.77969933 C130.90042615 75.78277193 136.40297536 90.7397828 141.9375 105.6875 C148.3999203 123.14746401 154.75673555 140.63771603 160.95065308 158.19467163 C166.65439671 174.35104899 172.55407922 190.43132471 178.5 206.5 C184.7766333 223.4624161 190.98301409 240.44368924 197 257.5 C202.93637744 274.32626444 209.05756382 291.07885343 215.25 307.8125 C222.2410356 326.71530566 229.16642011 345.63969916 235.96398926 364.61288452 C236.85891882 367.10958571 237.75546999 369.60570626 238.65368652 372.10122681 C239.89518789 375.55270882 241.13028201 379.00641058 242.36328125 382.4609375 C242.73405289 383.48933243 243.10482452 384.51772736 243.48683167 385.57728577 C243.82029099 386.51648361 244.15375031 387.45568146 244.49731445 388.42333984 C244.789272 389.23958832 245.08122955 390.05583679 245.3820343 390.89682007 C246 393 246 393 246 396 C215.64 396 185.28 396 154 396 C144.625 369.25 144.625 369.25 141.73681641 361.00488281 C140.94190105 358.73757085 140.14682074 356.47031672 139.3515625 354.203125 C138.70509262 352.35899017 138.70509262 352.35899017 138.04556274 350.4776001 C135.75576096 343.95358384 133.44537111 337.4375154 131.10449219 330.93164062 C130.87035551 330.28006863 130.63621883 329.62849663 130.39498711 328.95718002 C129.27255624 325.83428214 128.14674291 322.71272694 127.01528931 319.59307861 C126.61885223 318.49211853 126.22241516 317.39115845 125.81396484 316.25683594 C125.46264496 315.28679626 125.11132507 314.31675659 124.74935913 313.31732178 C124 311 124 311 124 309 C74.83 309.33 25.66 309.66 -25 310 C-32.26 330.79 -39.52 351.58 -47 373 C-55 395 -55 395 -56 396 C-58.7388842 396.09516211 -61.45247941 396.12554594 -64.19165039 396.11352539 C-65.05011063 396.11367142 -65.90857086 396.11381744 -66.79304504 396.1139679 C-69.64460738 396.11326847 -72.49610525 396.1054747 -75.34765625 396.09765625 C-77.31920842 396.09579218 -79.29076105 396.09436822 -81.26231384 396.09336853 C-86.46226267 396.08954251 -91.66218375 396.07971152 -96.86212158 396.06866455 C-102.16393661 396.05845222 -107.4657561 396.05387129 -112.76757812 396.04882812 C-123.17839763 396.03808933 -133.58919651 396.02101191 -144 396 C-141.98350067 386.50238201 -141.98350067 386.50238201 -140.4855957 382.47998047 C-140.19868362 381.70045013 -139.91177155 380.9209198 -139.61616516 380.11776733 C-139.30583847 379.29257599 -138.99551178 378.46738464 -138.67578125 377.6171875 C-138.34196945 376.71457184 -138.00815765 375.81195618 -137.66423035 374.88198853 C-136.9362393 372.91542172 -136.20561559 370.94982791 -135.47265625 368.98510742 C-133.86417362 364.6731419 -132.26866773 360.35640741 -130.67221069 356.03997803 C-129.80992037 353.70888807 -128.9469694 351.37804241 -128.08340454 349.04742432 C-123.33387749 336.22330071 -118.65005238 323.3754014 -113.96762085 310.52667236 C-111.51172608 303.78786261 -109.05300976 297.05008236 -106.59375 290.3125 C-106.35347265 289.65418812 -106.1131953 288.99587624 -105.86563683 288.31761551 C-101.26172142 275.70513307 -96.63510391 263.10105147 -92 250.5 C-85.24516304 232.13434948 -78.52115294 213.7575587 -71.8125 195.375 C-71.57176884 194.71539024 -71.33103767 194.05578049 -71.08301163 193.37618256 C-67.38780216 183.25110658 -63.69377943 173.12559774 -60 163 C-47.4757296 128.66775942 -34.94114647 94.33957489 -22.3237915 60.04139709 C-19.51826254 52.4135034 -16.71944567 44.78315926 -13.921875 37.15234375 C-12.66688542 33.73057943 -11.4117884 30.30885453 -10.15664673 26.887146 C-9.34942649 24.68583465 -8.54259725 22.48437988 -7.73617554 20.28277588 C-6.62594827 17.25193308 -5.51430453 14.2216134 -4.40234375 11.19140625 C-4.07099426 10.28567368 -3.73964478 9.3799411 -3.39825439 8.44676208 C-3.09530457 7.62200882 -2.79235474 6.79725555 -2.48022461 5.94750977 C-2.08534096 4.87014305 -2.08534096 4.87014305 -1.68247986 3.77101135 C-1 2 -1 2 0 0 Z M48 93 C47.59386475 94.19858643 47.18772949 95.39717285 46.76928711 96.63208008 C39.48663353 118.11526226 32.17952214 139.58880252 24.6875 161 C19.28072708 176.45900436 13.88587157 191.92207176 8.52561283 207.39727211 C7.43921255 210.53372312 6.35143268 213.66968308 5.26156616 216.80493164 C4.04774645 220.29733133 2.83783241 223.79106012 1.62890625 227.28515625 C1.07697098 228.86938133 1.07697098 228.86938133 0.5138855 230.48561096 C0.01503342 231.93144814 0.01503342 231.93144814 -0.49389648 233.40649414 C-0.93233131 234.67089073 -0.93233131 234.67089073 -1.37962341 235.96083069 C-2.0970195 237.96366011 -2.0970195 237.96366011 -2 240 C31.66 240 65.32 240 100 240 C99.27870226 236.3935113 98.50537715 233.30364612 97.3203125 229.86987305 C96.80114258 228.35830124 96.80114258 228.35830124 96.27148438 226.81619263 C95.89314453 225.72571625 95.51480469 224.63523987 95.125 223.51171875 C94.72861328 222.36162323 94.33222656 221.21152771 93.92382812 220.02658081 C92.84411528 216.89711368 91.76134158 213.76874112 90.67687988 210.64091873 C89.99809775 208.68201027 89.32060778 206.72265976 88.64355469 204.76315308 C81.82782848 185.03849339 74.91440092 165.34970695 67.90795898 145.69189453 C64.66141014 136.57464438 61.4495777 127.44885022 58.34765625 118.28125 C58.06417328 117.44496567 57.78069031 116.60868134 57.48861694 115.74705505 C56.17371113 111.86358831 54.86763404 107.97750695 53.57617188 104.08618164 C53.12520543 102.74618736 52.67404636 101.40625788 52.22265625 100.06640625 C51.83859619 98.91084229 51.45453613 97.75527832 51.05883789 96.56469727 C50.27140684 93.86233662 50.27140684 93.86233662 48 93 Z " fill="#000000" transform="translate(2365,189)"/>
<path d="M0 0 C28.38 0 56.76 0 86 0 C86.01458252 7.47897949 86.02916504 14.95795898 86.04418945 22.66357422 C86.09304829 46.65122062 86.15648523 70.63880605 86.22898628 94.62639164 C86.24025312 98.35851207 86.25139179 102.09063286 86.26245117 105.82275391 C86.26465486 106.56568601 86.26685854 107.30861812 86.269129 108.07406332 C86.30440704 120.07023196 86.32932459 132.06640054 86.35034702 144.06260167 C86.37218502 156.39116508 86.40531054 168.71966175 86.44870156 181.0481683 C86.47508126 188.64257997 86.49287704 196.23690865 86.49934604 203.83136381 C86.50527234 209.67554327 86.52697739 215.51958607 86.55427551 221.36370087 C86.56300481 223.74593676 86.56678904 226.12819724 86.56500816 228.51044846 C86.55106541 255.78933209 89.66199132 284.96995281 108.37109375 306.46484375 C123.57797522 321.1294293 144.13891795 325.3847853 164.69677734 325.30273438 C184.42641207 324.87835665 203.02874639 319.47321995 217.53515625 305.5703125 C238.67825951 281.707256 239.45588352 247.16850469 239.43237305 217.06054688 C239.44141884 214.67279564 239.4517528 212.285049 239.46325684 209.89730835 C239.49052243 203.4980945 239.50006936 197.09896946 239.50611091 190.69970512 C239.5146124 184.6645763 239.53676181 178.62950876 239.55872939 172.59441787 C239.60173087 160.66159513 239.63184846 148.72877754 239.65356445 136.79589844 C239.67465487 125.22230511 239.70199924 113.64875364 239.73754883 102.07519531 C239.73974765 101.35864775 239.74194648 100.64210018 239.74421193 99.90383905 C239.75528359 96.30818872 239.76647602 92.71253877 239.77772844 89.116889 C239.87053522 59.41128999 239.93987913 29.7056877 240 0 C268.38 0 296.76 0 326 0 C326.02210277 29.07057739 326.04054474 58.14114881 326.05106533 87.21173252 C326.05231583 90.65458276 326.05361017 94.09743299 326.05493164 97.5402832 C326.05532511 98.56826844 326.05532511 98.56826844 326.05572652 99.61702106 C326.06006142 110.67029701 326.06793683 121.72356769 326.0771528 132.77684053 C326.08655023 144.14373659 326.09199372 155.51062877 326.09408849 166.87752897 C326.09538557 173.25149477 326.09840731 179.62544866 326.10573006 185.99941063 C326.11258417 192.01494655 326.11459812 198.0304658 326.11310768 204.04600525 C326.11337983 206.23832604 326.11532868 208.43064747 326.11920547 210.62296486 C326.14878982 228.23648099 326.15893145 246.01847172 323.75 263.5 C323.62141602 264.44593018 323.49283203 265.39186035 323.36035156 266.36645508 C317.59935108 306.34420612 301.2001143 343.94168877 269.1875 369.66015625 C229.16267455 399.04112493 176.0620377 404.63938774 128 398 C99.87274003 393.66191306 72.61197995 383.98837085 51 365 C49.77216797 363.98873047 49.77216797 363.98873047 48.51953125 362.95703125 C18.0159268 337.10898487 5.3665937 296.43246973 1 258 C0.86744733 256.88996424 0.86744733 256.88996424 0.73221684 255.75750351 C-0.40324669 244.55909219 -0.13187604 233.2969439 -0.11352539 222.05566406 C-0.11324301 219.63027955 -0.11340225 217.20489496 -0.1139679 214.7795105 C-0.11419479 209.57734951 -0.11137912 204.37519984 -0.10573006 199.1730423 C-0.09756803 191.65179746 -0.09499504 184.13055867 -0.09374207 176.60930988 C-0.0915589 164.40359897 -0.08491884 152.19789477 -0.07543945 139.9921875 C-0.06624625 128.14257846 -0.05917477 116.29297126 -0.05493164 104.44335938 C-0.05466892 103.71171114 -0.05440619 102.98006291 -0.05413551 102.22624353 C-0.05283038 98.55540962 -0.05156669 94.8845757 -0.05032361 91.21374178 C-0.03997392 60.80915531 -0.02154802 30.40458119 0 0 Z " fill="#FF3758" transform="translate(2190,710)"/>
<path d="M0 0 C103.29 0 206.58 0 313 0 C313 24.42 313 48.84 313 74 C275.38 74 237.76 74 199 74 C199 180.26 199 286.52 199 396 C170.95 396 142.9 396 114 396 C114 289.74 114 183.48 114 74 C76.38 74 38.76 74 0 74 C0 49.58 0 25.16 0 0 Z " fill="#FF3758" transform="translate(1838,710)"/>
<path d="M0 0 C28.38 0 56.76 0 86 0 C86 130.68 86 261.36 86 396 C57.62 396 29.24 396 0 396 C0 265.32 0 134.64 0 0 Z " fill="#FF3758" transform="translate(2960,710)"/>
<path d="M0 0 C28.05 0 56.1 0 85 0 C85 130.68 85 261.36 85 396 C56.95 396 28.9 396 0 396 C0 265.32 0 134.64 0 0 Z " fill="#000000" transform="translate(2643,189)"/>
<path d="M0 0 C19.47 0 38.94 0 59 0 C62.22371585 6.44743169 65.2831903 12.78338201 68.046875 19.4140625 C68.60041908 20.73007698 68.60041908 20.73007698 69.16514587 22.07267761 C70.36308198 24.92220859 71.55649917 27.7736089 72.75 30.625 C74.00884584 33.62190596 75.26893519 36.6182871 76.52909851 39.61463928 C77.39040328 41.66277129 78.25133203 43.71106146 79.1118927 45.75950623 C83.60710557 56.4565971 88.14437448 67.1356896 92.6875 77.8125 C93.43133838 79.56135078 94.17515415 81.31021117 94.91894531 83.05908203 C96.61204162 87.0396387 98.3057947 91.01991522 100 95 C102.81221222 89.52988235 105.2965459 84.03751875 107.55932617 78.32080078 C107.88992538 77.49379166 108.2205246 76.66678253 108.56114197 75.81471252 C109.64165367 73.10952429 110.71730869 70.40243309 111.79296875 67.6953125 C112.54681703 65.80568595 113.30099803 63.9161921 114.05549622 62.02682495 C116.03249291 57.07390619 118.00548701 52.11940327 119.97747803 47.16448975 C123.14312701 39.21260306 126.31530199 31.26331652 129.48668861 23.31371689 C130.59400613 20.5365608 131.69987406 17.7588311 132.8054657 14.98098755 C133.47991323 13.28826252 134.15437628 11.59554367 134.82885742 9.90283203 C135.2909259 8.74025124 135.2909259 8.74025124 135.7623291 7.55418396 C137.88678264 2.22643471 137.88678264 2.22643471 139 0 C158.14 0 177.28 0 197 0 C197 50.16 197 100.32 197 152 C183.47 152 169.94 152 156 152 C155.67 121.31 155.34 90.62 155 59 C150.05 70.55 145.1 82.1 140 94 C136.46542734 102.14901822 132.92757732 110.29635424 129.375 118.4375 C127.69418585 122.28987461 126.01471324 126.14283049 124.3359375 129.99609375 C123.97132416 130.83055527 123.60671082 131.66501678 123.23104858 132.52476501 C120.41459858 138.98937081 117.71323658 145.48823222 115 152 C104.44 152 93.88 152 83 152 C76.25396825 138.50793651 76.25396825 138.50793651 74.24609375 133.7578125 C73.79081299 132.68732666 73.33553223 131.61684082 72.86645508 130.51391602 C72.3948999 129.39557373 71.92334473 128.27723145 71.4375 127.125 C70.65752641 125.28993486 69.87753464 123.45487727 69.09666443 121.62019348 C68.55620384 120.35033012 68.01613717 119.08029904 67.47645569 117.81010437 C63.96490657 109.55104078 60.38135932 101.32318744 56.80444336 93.09228516 C52.16659857 82.40995585 47.58768703 71.70460308 43 61 C42.67 91.03 42.34 121.06 42 152 C28.14 152 14.28 152 0 152 C0 101.84 0 51.68 0 0 Z " fill="#000000" transform="translate(3301,189)"/>
<path d="M0 0 C44.88 0 89.76 0 136 0 C136 12.54 136 25.08 136 38 C120.49 38 104.98 38 89 38 C89 75.62 89 113.24 89 152 C75.14 152 61.28 152 47 152 C47 114.38 47 76.76 47 38 C31.49 38 15.98 38 0 38 C0 25.46 0 12.92 0 0 Z " fill="#000000" transform="translate(3150,189)"/>
<path d="M0 0 C3.16652446 2.33287471 5.5595094 5.17194314 7.83984375 8.35546875 C8.26394531 7.96875 8.68804688 7.58203125 9.125 7.18359375 C19.04281011 -1.62254974 27.71285707 -3.55549656 40.78857422 -2.86669922 C47.13964523 -2.1788303 51.98190157 1.12230663 56.27734375 5.66796875 C62.93111895 14.31411732 62.98835058 24.40864794 62.9375 34.87890625 C62.93608505 35.98021881 62.9346701 37.08153137 62.93321228 38.21621704 C62.92763127 41.72099567 62.91508221 45.22570955 62.90234375 48.73046875 C62.8973263 51.11197824 62.89276382 53.49348874 62.88867188 55.875 C62.87766805 61.70184772 62.86041645 67.52864727 62.83984375 73.35546875 C58.54984375 73.35546875 54.25984375 73.35546875 49.83984375 73.35546875 C49.82526123 71.9485376 49.81067871 70.54160645 49.7956543 69.09204102 C49.73741557 63.84179036 49.66018452 58.59195714 49.57739258 53.34204102 C49.54426323 51.07550869 49.51619447 48.80889624 49.4934082 46.54223633 C49.4596414 43.27260387 49.40731403 40.00369777 49.3515625 36.734375 C49.34517258 35.73088516 49.33878265 34.72739532 49.3321991 33.6934967 C49.17491255 26.06271859 48.35334345 19.29810255 43.27734375 13.35546875 C38.28239361 9.25704812 33.0891639 9.79535043 26.83984375 10.35546875 C22.51345449 11.62658489 20.18286367 13.88265751 17.52734375 17.54296875 C13.91646619 24.7956592 13.5286308 32.67955904 13.42578125 40.640625 C13.4064151 41.5823204 13.38704895 42.52401581 13.36709595 43.49424744 C13.30785502 46.46873233 13.26113901 49.44325711 13.21484375 52.41796875 C13.17661279 54.44858353 13.13755817 56.47918299 13.09765625 58.50976562 C13.00219986 63.45820716 12.91796677 68.40672445 12.83984375 73.35546875 C8.54984375 73.35546875 4.25984375 73.35546875 -0.16015625 73.35546875 C-0.16950195 71.85242187 -0.17884766 70.349375 -0.18847656 68.80078125 C-0.22847423 63.20201436 -0.29426132 57.60379129 -0.36767578 52.00537109 C-0.39582856 49.58649707 -0.41707127 47.16753202 -0.43115234 44.74853516 C-0.45265992 41.26287426 -0.49935318 37.77830123 -0.55078125 34.29296875 C-0.55200989 33.21869629 -0.55323853 32.14442383 -0.55450439 31.03759766 C-0.70587612 23.20399515 -2.02310786 17.49251714 -7.66015625 11.85546875 C-12.84343036 9.63406556 -17.60580285 9.60776733 -23.16015625 10.35546875 C-28.09675735 12.64746212 -30.5594688 15.61850233 -33.16015625 20.35546875 C-35.28663889 26.29744965 -35.49947724 31.82480685 -35.57421875 38.1015625 C-35.5935849 39.11267593 -35.61295105 40.12378937 -35.63290405 41.1655426 C-35.69237615 44.37460057 -35.73895541 47.58369503 -35.78515625 50.79296875 C-35.82336582 52.97722863 -35.86241927 55.16147392 -35.90234375 57.34570312 C-35.99805103 62.68217229 -36.08220113 68.01871194 -36.16015625 73.35546875 C-40.45015625 73.35546875 -44.74015625 73.35546875 -49.16015625 73.35546875 C-49.16015625 48.60546875 -49.16015625 23.85546875 -49.16015625 -1.64453125 C-45.20015625 -1.64453125 -41.24015625 -1.64453125 -37.16015625 -1.64453125 C-36.83015625 0.66546875 -36.50015625 2.97546875 -36.16015625 5.35546875 C-35.64066406 4.94554687 -35.12117188 4.535625 -34.5859375 4.11328125 C-33.88855469 3.57445312 -33.19117187 3.035625 -32.47265625 2.48046875 C-31.78816406 1.94679688 -31.10367188 1.413125 -30.3984375 0.86328125 C-22.17010609 -4.67971338 -8.70683142 -4.62915989 0 0 Z " fill="#000000" transform="translate(4053.16015625,1249.64453125)"/>
<path d="M0 0 C5.61 0 11.22 0 17 0 C17.8971875 2.40023438 18.794375 4.80046875 19.71875 7.2734375 C26.59643296 25.65947833 33.5112072 44.03088011 40.5 62.375 C40.82621338 63.23180359 41.15242676 64.08860718 41.48852539 64.97137451 C42.43943859 67.46821221 43.39140367 69.96464611 44.34375 72.4609375 C44.64518921 73.25221039 44.94662842 74.04348328 45.25720215 74.85873413 C46.82158403 78.95515516 48.4071239 83.04193119 50.0234375 87.11816406 C50.34977173 87.94450348 50.67610596 88.7708429 51.0123291 89.6222229 C51.63476381 91.19509198 52.26141915 92.76629954 52.89294434 94.33554077 C54.09143254 97.3677926 55 99.70810892 55 103 C50.05 103 45.1 103 40 103 C38.57273678 99.33499194 37.14752836 95.66928754 35.72753906 92.00146484 C35.00558153 90.13939585 34.28014762 88.27867593 33.5546875 86.41796875 C33.10351562 85.25136719 32.65234375 84.08476563 32.1875 82.8828125 C31.55908203 81.26463623 31.55908203 81.26463623 30.91796875 79.61376953 C30 77 30 77 30 75 C15.48 75 0.96 75 -14 75 C-14.99 78.3 -15.98 81.6 -17 85 C-17.58114837 86.64776561 -18.18158475 88.28928976 -18.82421875 89.9140625 C-19.13037109 90.69394531 -19.43652344 91.47382812 -19.75195312 92.27734375 C-20.06068359 93.05207031 -20.36941406 93.82679687 -20.6875 94.625 C-21.16799805 95.84509766 -21.16799805 95.84509766 -21.65820312 97.08984375 C-22.43519691 99.06132051 -23.21706853 101.03087373 -24 103 C-28.62 103 -33.24 103 -38 103 C-37.17918831 98.07512985 -36.01419762 93.91764675 -34.25390625 89.31640625 C-33.97109802 88.56420303 -33.68828979 87.81199982 -33.39691162 87.03700256 C-32.45758784 84.54339392 -31.510193 82.05293874 -30.5625 79.5625 C-29.89897616 77.80726364 -29.23581627 76.05188966 -28.57299805 74.29638672 C-26.39165929 68.52723696 -24.19694549 62.7632216 -22 57 C-21.60594971 55.96578918 -21.21189941 54.93157837 -20.8059082 53.86602783 C-16.48320044 42.52315749 -12.14953752 31.18447286 -7.80078125 19.8515625 C-7.47527283 19.00199478 -7.1497644 18.15242706 -6.81439209 17.27711487 C-4.59371221 11.49720767 -2.30946266 5.74502431 0 0 Z M7 17 C4.71448512 23.06636323 2.43660823 29.13555364 0.1640625 35.20678711 C-0.61021427 37.27255364 -1.38624845 39.33766235 -2.1640625 41.40209961 C-3.28065362 44.36662054 -4.39093909 47.33343633 -5.5 50.30078125 C-5.84998047 51.2258699 -6.19996094 52.15095856 -6.56054688 53.1040802 C-6.88087891 53.96474594 -7.20121094 54.82541168 -7.53125 55.7121582 C-7.81548828 56.46938675 -8.09972656 57.2266153 -8.39257812 58.00679016 C-9.14575491 60.13099894 -9.14575491 60.13099894 -9 63 C2.55 63 14.1 63 26 63 C17.58427231 39.96870604 17.58427231 39.96870604 9 17 C8.34 17 7.68 17 7 17 Z " fill="#000000" transform="translate(1542,1220)"/>
<path d="M0 0 C55.5752809 0 55.5752809 0 65 9 C72.87783946 17.77066127 73.80629922 26.56737924 73.19970703 37.98095703 C72.49115875 45.14439752 69.06133621 51.05369416 64 56 C52.75360001 64.51784303 40.00867518 64.15104294 26.5 64.0625 C22.045 64.041875 17.59 64.02125 13 64 C13 76.87 13 89.74 13 103 C8.71 103 4.42 103 0 103 C0 69.01 0 35.02 0 0 Z M13 13 C13 25.54 13 38.08 13 51 C17.785 51.061875 22.57 51.12375 27.5 51.1875 C28.99337891 51.21481201 30.48675781 51.24212402 32.02539062 51.27026367 C40.50069642 51.32326283 47.10373618 51.29017833 53.8125 45.625 C58.55290209 39.93651749 59.49691223 36.20751589 59.28125 28.875 C58.75625084 23.50834195 56.96389435 20.9219859 53.125 17.25 C47.82540331 13.43429038 44.0335176 12.75272098 37.51171875 12.8046875 C36.22483154 12.80968262 34.93794434 12.81467773 33.61206055 12.81982422 C31.98695557 12.83803223 30.36185059 12.85624023 28.6875 12.875 C23.510625 12.91625 18.33375 12.9575 13 13 Z " fill="#000000" transform="translate(3581,1220)"/>
<path d="M0 0 C6.42939479 4.30744038 9.87842592 8.78635302 11.9765625 16.32421875 C12.38543718 19.62837583 12.41752648 22.89598204 12.41796875 26.22265625 C12.43778053 27.59691269 12.43778053 27.59691269 12.45799255 28.99893188 C12.49860257 31.89905974 12.52049835 34.79887223 12.5390625 37.69921875 C12.56284526 40.62089491 12.59087896 43.54227415 12.63084412 46.46377563 C12.65522341 48.27549854 12.67006384 50.08737987 12.67445374 51.89926147 C12.5050028 56.59451672 12.5050028 56.59451672 14.9765625 60.32421875 C16.96477563 60.72186138 18.96600589 61.06197224 20.9765625 61.32421875 C20.9765625 65.28421875 20.9765625 69.24421875 20.9765625 73.32421875 C8.62382676 73.78172748 8.62382676 73.78172748 2.9765625 70.32421875 C1.32910849 68.39728593 0.21851849 66.55973954 -1.0234375 64.32421875 C-1.44753906 64.72253906 -1.87164063 65.12085938 -2.30859375 65.53125 C-9.49264456 72.02057941 -16.38780996 74.31154029 -26.0234375 74.32421875 C-35.40139836 73.67297147 -42.67278767 71.38057168 -48.9609375 64.19921875 C-53.25930841 58.20755021 -52.55984319 51.43159414 -52.0234375 44.32421875 C-50.55967345 38.02409917 -46.83142718 34.95484766 -41.53515625 31.55078125 C-35.94939249 28.82305213 -30.72660663 28.07771942 -24.55859375 28.12890625 C-23.54133461 28.13315109 -23.54133461 28.13315109 -22.50352478 28.13748169 C-20.36413984 28.14856459 -18.2251932 28.17364515 -16.0859375 28.19921875 C-14.62435506 28.20926399 -13.16276597 28.21838712 -11.70117188 28.2265625 C-8.14178771 28.2484645 -4.58265547 28.28291009 -1.0234375 28.32421875 C-1.15982184 26.71826965 -1.30306681 25.11290216 -1.44921875 23.5078125 C-1.52825439 22.61376709 -1.60729004 21.71972168 -1.6887207 20.79858398 C-2.12083063 17.60424841 -2.89054469 15.75130367 -5.0234375 13.32421875 C-11.29019861 9.59082915 -17.07921104 8.26354855 -24.3359375 9.8203125 C-29.3512481 11.2803618 -32.2090346 12.708598 -35.0234375 17.32421875 C-35.6834375 18.64421875 -36.3434375 19.96421875 -37.0234375 21.32421875 C-41.3134375 21.32421875 -45.6034375 21.32421875 -50.0234375 21.32421875 C-49.67650127 14.84807575 -48.34019182 10.27518816 -44.0234375 5.32421875 C-32.91524291 -4.07822311 -13.27287424 -6.68333774 0 0 Z M-37.8984375 44.01171875 C-39.87524272 48.07515171 -39.54031569 52.25670599 -38.4609375 56.57421875 C-35.2087352 60.53342155 -31.93765525 62.10259812 -26.953125 62.6796875 C-19.74580954 62.85527175 -12.79401832 62.81643454 -7.27734375 57.70703125 C-3.35280595 53.32133673 -0.72060874 49.62039661 -0.8984375 43.57421875 C-0.91648437 42.775 -0.93453125 41.97578125 -0.953125 41.15234375 C-0.97632812 40.5490625 -0.99953125 39.94578125 -1.0234375 39.32421875 C-5.04353207 39.24965926 -9.06335483 39.19542517 -13.08398438 39.15942383 C-14.44961566 39.14440447 -15.81519926 39.12398267 -17.18066406 39.09790039 C-19.15147655 39.06121738 -21.12265158 39.04603324 -23.09375 39.03125 C-24.27727051 39.01553955 -25.46079102 38.9998291 -26.68017578 38.98364258 C-31.20499931 39.44458378 -34.521115 40.9721285 -37.8984375 44.01171875 Z " fill="#000000" transform="translate(3258.0234375,1249.67578125)"/>
<path d="M0 0 C6.42939479 4.30744038 9.87842592 8.78635302 11.9765625 16.32421875 C12.38543718 19.62837583 12.41752648 22.89598204 12.41796875 26.22265625 C12.43778053 27.59691269 12.43778053 27.59691269 12.45799255 28.99893188 C12.49860257 31.89905974 12.52049835 34.79887223 12.5390625 37.69921875 C12.56284526 40.62089491 12.59087896 43.54227415 12.63084412 46.46377563 C12.65522341 48.27549854 12.67006384 50.08737987 12.67445374 51.89926147 C12.5050028 56.59451672 12.5050028 56.59451672 14.9765625 60.32421875 C16.96477563 60.72186138 18.96600589 61.06197224 20.9765625 61.32421875 C20.9765625 65.28421875 20.9765625 69.24421875 20.9765625 73.32421875 C8.62382676 73.78172748 8.62382676 73.78172748 2.9765625 70.32421875 C1.32910849 68.39728593 0.21851849 66.55973954 -1.0234375 64.32421875 C-1.44753906 64.72253906 -1.87164063 65.12085938 -2.30859375 65.53125 C-9.49264456 72.02057941 -16.38780996 74.31154029 -26.0234375 74.32421875 C-35.40139836 73.67297147 -42.67278767 71.38057168 -48.9609375 64.19921875 C-53.25930841 58.20755021 -52.55984319 51.43159414 -52.0234375 44.32421875 C-50.55967345 38.02409917 -46.83142718 34.95484766 -41.53515625 31.55078125 C-35.94939249 28.82305213 -30.72660663 28.07771942 -24.55859375 28.12890625 C-23.54133461 28.13315109 -23.54133461 28.13315109 -22.50352478 28.13748169 C-20.36413984 28.14856459 -18.2251932 28.17364515 -16.0859375 28.19921875 C-14.62435506 28.20926399 -13.16276597 28.21838712 -11.70117188 28.2265625 C-8.14178771 28.2484645 -4.58265547 28.28291009 -1.0234375 28.32421875 C-1.15982184 26.71826965 -1.30306681 25.11290216 -1.44921875 23.5078125 C-1.52825439 22.61376709 -1.60729004 21.71972168 -1.6887207 20.79858398 C-2.12083063 17.60424841 -2.89054469 15.75130367 -5.0234375 13.32421875 C-11.29019861 9.59082915 -17.07921104 8.26354855 -24.3359375 9.8203125 C-29.3512481 11.2803618 -32.2090346 12.708598 -35.0234375 17.32421875 C-35.6834375 18.64421875 -36.3434375 19.96421875 -37.0234375 21.32421875 C-41.3134375 21.32421875 -45.6034375 21.32421875 -50.0234375 21.32421875 C-49.67650127 14.84807575 -48.34019182 10.27518816 -44.0234375 5.32421875 C-32.91524291 -4.07822311 -13.27287424 -6.68333774 0 0 Z M-37.8984375 44.01171875 C-39.55868963 47.42445925 -39.55122602 50.6443599 -39.0234375 54.32421875 C-37.7090287 57.61024074 -36.45114342 58.9978116 -33.6484375 61.13671875 C-26.44839177 63.49535442 -17.76102823 63.55932774 -10.73828125 60.44140625 C-6.28762093 57.54188722 -3.08996024 53.16976485 -1.0234375 48.32421875 C-0.78363988 45.96199643 -0.78363988 45.96199643 -0.8984375 43.57421875 C-0.91648437 42.775 -0.93453125 41.97578125 -0.953125 41.15234375 C-0.97632812 40.5490625 -0.99953125 39.94578125 -1.0234375 39.32421875 C-5.04353207 39.24965926 -9.06335483 39.19542517 -13.08398438 39.15942383 C-14.44961566 39.14440447 -15.81519926 39.12398267 -17.18066406 39.09790039 C-19.15147655 39.06121738 -21.12265158 39.04603324 -23.09375 39.03125 C-24.27727051 39.01553955 -25.46079102 38.9998291 -26.68017578 38.98364258 C-31.20499931 39.44458378 -34.521115 40.9721285 -37.8984375 44.01171875 Z " fill="#000000" transform="translate(2138.0234375,1249.67578125)"/>
<path d="M0 0 C0.928125 0.53625 1.85625 1.0725 2.8125 1.625 C11.83446436 11.42027559 10.68813096 22.92389056 10.625 35.4375 C10.62115105 38.33552055 10.62454967 41.23292408 10.64559937 44.13087463 C10.65768717 45.92489404 10.65502143 47.7190881 10.63589478 49.51304626 C10.63955048 50.32141434 10.64320618 51.12978241 10.64697266 51.96264648 C10.64100571 53.02659889 10.64100571 53.02659889 10.63491821 54.11204529 C11.12675058 56.65546779 11.91825462 57.47666653 14 59 C15.65 59.33 17.3 59.66 19 60 C19 63.96 19 67.92 19 72 C7.15440764 72.32453678 7.15440764 72.32453678 2 70 C-0.01834197 67.78187291 -1.42296046 65.58061016 -3 63 C-3.42410156 63.39832031 -3.84820313 63.79664063 -4.28515625 64.20703125 C-11.12768185 70.38786207 -17.78882533 72.97437782 -27 73 C-35.62945178 72.51767341 -42.50995372 70.92935114 -49 65 C-53.77265522 59.48286375 -54.35873076 54.14503041 -54.2734375 47.07421875 C-53.72962114 40.96016915 -51.20907579 36.8693593 -46.8125 32.6875 C-37.93912054 26.00629563 -28.03398651 26.62651464 -17.4375 26.8125 C-15.93686241 26.82757608 -14.43621015 26.84125931 -12.93554688 26.85351562 C-9.29005548 26.88628518 -5.64512365 26.93790521 -2 27 C-2.44446144 25.06309572 -2.89964429 23.12864947 -3.359375 21.1953125 C-3.73787598 19.57906982 -3.73787598 19.57906982 -4.12402344 17.93017578 C-5.27694704 14.07360133 -6.67810398 12.26492911 -10 10 C-16.99236848 7.28074559 -23.24120703 7.18098041 -30.140625 10.015625 C-34.62187298 12.3880504 -36.77941629 15.55883259 -39 20 C-43.29 20 -47.58 20 -52 20 C-50.5556104 12.0558572 -48.50046915 6.25678914 -41.78125 1.16796875 C-30.29559717 -6.36319396 -11.91596014 -7.25098851 0 0 Z M-39 42 C-40.97606631 44.49156187 -41.02329509 46.179705 -41.4375 49.375 C-40.85053261 54.23844407 -39.47702486 55.60199844 -36 59 C-30.7255055 62.44961359 -24.01923941 61.53309407 -18 61 C-12.76426769 59.62520865 -8.61531249 56.53533074 -5.28320312 52.29077148 C-3.69148323 49.44923652 -3.30340866 46.96550254 -2.8359375 43.75 C-2.67399902 42.67234375 -2.51206055 41.5946875 -2.34521484 40.484375 C-2.23129395 39.66453125 -2.11737305 38.8446875 -2 38 C-6.14422261 37.90046209 -10.28779575 37.82822099 -14.43286133 37.78027344 C-15.84021134 37.76026754 -17.24747938 37.73305338 -18.65454102 37.69824219 C-29.53352658 37.27249157 -29.53352658 37.27249157 -39 42 Z " fill="#000000" transform="translate(3749,1251)"/>
<path d="M0 0 C9.63457847 6.56148017 13.20571628 14.26858068 15.6171875 25.4375 C16 29 16 29 15 37 C-3.81 37 -22.62 37 -42 37 C-39.04453857 49.85108488 -39.04453857 49.85108488 -30.08203125 58.15234375 C-23.7431119 60.89794355 -17.14570798 60.97343927 -10.6875 58.625 C-9.45326247 58.09498945 -8.22330158 57.5547853 -7 57 C-6.21625 56.71125 -5.4325 56.4225 -4.625 56.125 C-2.28187447 54.50283617 -1.88712296 52.66136888 -1 50 C-0.34 48.68 0.32 47.36 1 46 C5.29 46 9.58 46 14 46 C13.47661543 54.37415314 9.71560568 59.62796511 3.6875 65.3125 C-4.22428279 71.95996165 -12.79636607 73.51254834 -23.01953125 72.78515625 C-32.56442182 71.49861773 -40.8607969 68.19630927 -47.46875 61.01171875 C-54.93512331 51.20258034 -56.95331228 40.07528888 -56 28 C-54.35367604 16.95994521 -49.90203481 8.54400743 -41.1640625 1.5078125 C-29.72466613 -6.46259725 -12.15761345 -6.91515262 0 0 Z M-38.6875 16.70703125 C-40.52318235 19.58689123 -40.52318235 19.58689123 -41 26 C-26.81 26 -12.62 26 2 26 C0.64318514 17.85911082 -2.33466641 13.79904018 -9 9 C-20.33811936 3.70887763 -30.79926292 7.85102434 -38.6875 16.70703125 Z " fill="#000000" transform="translate(3178,1251)"/>
<path d="M0 0 C0.69351563 0.4125 1.38703125 0.825 2.1015625 1.25 C3.17277344 1.86875 3.17277344 1.86875 4.265625 2.5 C10.98093397 6.92657071 14.40028115 13.22878953 17.4765625 20.5 C18.44985931 26.33978086 18.1015625 32.32966663 18.1015625 38.25 C-0.7084375 38.25 -19.5184375 38.25 -38.8984375 38.25 C-36.93945625 49.31678819 -36.93945625 49.31678819 -30.15625 57.59765625 C-23.72827648 61.446164 -17.04925695 62.26894613 -9.74609375 60.82421875 C-4.26607993 59.10974226 -1.07715128 55.95733091 2.1015625 51.25 C2.7615625 49.93 3.4215625 48.61 4.1015625 47.25 C8.3915625 47.25 12.6815625 47.25 17.1015625 47.25 C15.73623634 55.9880874 12.56043478 60.86799155 6.2890625 67 C-2.87114093 73.46602595 -11.88652447 75.1015884 -22.9609375 73.625 C-32.9460293 71.66156668 -40.51177228 67.20376364 -46.8984375 59.25 C-53.79446112 48.86491681 -54.41523331 35.42467053 -52.2109375 23.4375 C-50.18154094 15.7486595 -45.46236717 7.29826471 -38.79296875 2.84375 C-27.3932112 -3.72495452 -12.23189218 -6.0528951 0 0 Z M-34.35546875 15.9453125 C-36.63188673 19.12534167 -36.63188673 19.12534167 -38.8984375 27.25 C-24.3784375 27.25 -9.8584375 27.25 5.1015625 27.25 C3.24832107 19.83703428 2.42605449 17.00671441 -2.8984375 12.25 C-14.01408763 5.58060992 -25.15490331 7.15997448 -34.35546875 15.9453125 Z " fill="#000000" transform="translate(2368.8984375,1249.75)"/>
<path d="M0 0 C7.80769817 5.42984347 12.90927917 12.14070625 15.3125 21.375 C16 26 16 26 16 37 C-3.14 37 -22.28 37 -42 37 C-38.81111206 49.58522828 -38.81111206 49.58522828 -30 58 C-21.82942172 61.08323709 -15.16332486 60.74247071 -7.2734375 57.34375 C-2.80215696 54.70093126 -0.63143914 50.89431743 1 46 C5.62 46 10.24 46 15 46 C12.66534246 55.75062853 8.87603485 62.70540314 0.4375 68.4375 C-9.60905159 73.90221518 -21.1556738 73.90298565 -32 71 C-40.68532006 68.0432953 -46.90774224 62.60191623 -51.34765625 54.55859375 C-56.38867209 43.59122236 -57.28698134 29.07102944 -53.25 17.625 C-49.26998606 8.75288558 -43.46501741 1.87581884 -34.625 -2.4375 C-24.06064495 -6.20931764 -9.72732013 -5.63327675 0 0 Z M-37.5625 15.9375 C-40.16645492 19.52992506 -40.191289 21.147734 -41 26 C-26.81 26 -12.62 26 2 26 C1.04348957 19.30442701 0.46894971 16.60610418 -4 12 C-14.88956696 3.93636093 -28.94335025 5.19449278 -37.5625 15.9375 Z " fill="#000000" transform="translate(2793,1251)"/>
<path d="M0 0 C1.0209375 0.61875 1.0209375 0.61875 2.0625 1.25 C2.76375 1.6625 3.465 2.075 4.1875 2.5 C12.63593996 8.13229331 17.60749372 16.25662557 19.625 26.1171875 C21.26546678 37.8641014 20.30378091 49.74034516 13.25 59.6875 C12.22061269 60.90381586 11.15838231 62.09323534 10.0625 63.25 C9.29292969 64.07951172 9.29292969 64.07951172 8.5078125 64.92578125 C1.200957 71.97042902 -9.00885317 74.37342241 -18.9375 74.25 C-30.26082971 73.315969 -39.25748208 69.81861503 -46.9375 61.25 C-54.08601114 50.93843084 -56.42086564 39.64880416 -54.47265625 27.3046875 C-52.48718055 18.11745674 -48.67339431 9.39025737 -41.0078125 3.56640625 C-29.30659025 -3.87380488 -12.8642582 -6.4321291 0 0 Z M-36.9375 18.25 C-42.28112813 25.52994281 -41.80671328 34.65444648 -40.9375 43.25 C-39.41359937 49.2070661 -36.64082321 53.25217527 -31.9375 57.25 C-31.298125 57.806875 -30.65875 58.36375 -30 58.9375 C-24.63418309 62.35211076 -19.13652822 62.92357862 -12.9375 62.25 C-6.45335095 60.73821297 -1.26264467 57.66859108 2.5078125 52.125 C6.71719262 44.62027659 8.07181349 37.24049447 6.359375 28.7734375 C3.92813846 20.22551854 0.98065399 14.75247972 -6.9375 10.25 C-18.88276455 5.90626744 -28.64874441 8.91598098 -36.9375 18.25 Z " fill="#000000" transform="translate(1985.9375,1249.75)"/>
<path d="M0 0 C10.27520702 6.25447384 16.13323187 12.98416117 19.37109375 24.765625 C21.62120112 36.06672609 20.47643262 47.51802558 14.7109375 57.63671875 C13.27598984 59.66411128 11.77597895 61.45761185 10.06640625 63.2578125 C9.54175781 63.81082031 9.01710938 64.36382813 8.4765625 64.93359375 C1.17827172 71.85409066 -8.04171505 74.35050748 -17.93359375 74.2578125 C-28.76877979 73.63601306 -38.13131822 70.57482167 -45.80859375 62.6328125 C-52.96118191 53.67488358 -55.71020474 42.55954615 -54.93359375 31.2578125 C-53.80665087 21.45340946 -50.06732076 12.23301225 -42.93359375 5.2578125 C-30.77327308 -3.2299281 -13.9423871 -6.9348221 0 0 Z M-34.87109375 16.0078125 C-41.37271431 24.39551638 -42.08929807 32.74534818 -40.93359375 43.2578125 C-38.79666307 50.7172835 -34.287345 55.93373179 -27.93359375 60.2578125 C-21.90151489 63.20968088 -15.06673634 63.19733563 -8.74609375 61.0703125 C-1.43483507 57.90790299 1.69783419 53.77524331 5.0859375 46.7578125 C8.47724579 38.11065192 7.50650719 29.69294 4.06640625 21.2578125 C0.7132217 15.01518169 -3.65714434 11.44924865 -10.37109375 9.0078125 C-19.76059786 7.03107479 -28.19926366 8.8422952 -34.87109375 16.0078125 Z " fill="#000000" transform="translate(2574.93359375,1249.7421875)"/>
<path d="M0 0 C10.27520702 6.25447384 16.13323187 12.98416117 19.37109375 24.765625 C21.62120112 36.06672609 20.47643262 47.51802558 14.7109375 57.63671875 C13.27598984 59.66411128 11.77597895 61.45761185 10.06640625 63.2578125 C9.54175781 63.81082031 9.01710938 64.36382813 8.4765625 64.93359375 C1.17827172 71.85409066 -8.04171505 74.35050748 -17.93359375 74.2578125 C-28.76877979 73.63601306 -38.13131822 70.57482167 -45.80859375 62.6328125 C-53.54211063 52.81719492 -55.62657532 41.53403949 -54.7109375 29.27734375 C-53.39460054 20.21634465 -49.51692934 11.69485175 -42.93359375 5.2578125 C-30.77327308 -3.2299281 -13.9423871 -6.9348221 0 0 Z M-34.87109375 16.0078125 C-41.19963432 24.15730107 -41.94466791 32.04366554 -40.93359375 42.2578125 C-39.2998347 49.42495786 -35.87469901 54.89291884 -29.93359375 59.2578125 C-23.96010491 62.67123469 -17.46262837 63.32590293 -10.796875 61.75390625 C-3.73713374 59.40065916 0.4720292 55.80875037 3.87890625 49.2578125 C7.96255325 40.79977341 8.02020236 32.54254492 5.1015625 23.71875 C2.31839868 17.10217185 -1.450341 12.88384737 -8.00390625 9.94921875 C-17.8161602 6.43349213 -27.66942155 8.273247 -34.87109375 16.0078125 Z " fill="#000000" transform="translate(3419.93359375,1249.7421875)"/>
<path d="M0 0 C6.66625854 5.40433306 10.92409674 13.14342059 12.75 21.4375 C14.01175606 34.52432045 13.3142914 46.23413572 5.625 57.25 C-0.77742062 64.93290474 -9.60249814 68.94676867 -19.375 70.1875 C-30.37000754 70.99310435 -40.32328791 68.58777897 -49.21484375 61.9765625 C-56.64299383 55.31235783 -60.90268509 45.65577279 -61.453125 35.80078125 C-61.7109606 22.53856648 -59.60653734 12.6006752 -50.46875 2.4609375 C-37.02928055 -10.48281381 -15.01719162 -9.84967892 0 0 Z M-42.25 12.4375 C-47.42216069 21.07178452 -50.02393293 29.31284546 -47.53125 39.32421875 C-45.09931593 46.51215292 -42.33947819 51.74175673 -35.6875 55.75 C-29.34044406 58.86582746 -23.06653647 59.56219576 -16.25 57.375 C-9.7685035 54.6190881 -4.74886031 50.29509531 -1.75 43.875 C1.25182189 35.07054917 1.09465162 25.0899584 -2.859375 16.625 C-6.90592891 10.2596343 -12.91174057 6.08638016 -20.25 4.4375 C-28.21837844 3.56822235 -37.04215777 6.03713738 -42.25 12.4375 Z " fill="#000000" transform="translate(3925.25,1253.5625)"/>
<path d="M0 0 C7.88966402 5.08377969 11.58217635 11.67638067 13.58227539 20.76782227 C14.22616887 25.72754228 14.16539788 30.62528674 14.140625 35.62109375 C14.13921005 36.70021027 14.1377951 37.77932678 14.13633728 38.8911438 C14.13075719 42.32459327 14.1182083 45.75797661 14.10546875 49.19140625 C14.10045118 51.52473864 14.09588872 53.85807205 14.09179688 56.19140625 C14.08079427 61.89976492 14.06354331 67.60807438 14.04296875 73.31640625 C9.75296875 73.31640625 5.46296875 73.31640625 1.04296875 73.31640625 C1.02838623 71.93976807 1.01380371 70.56312988 0.9987793 69.14477539 C0.94052948 64.00633595 0.86329867 58.86832254 0.78051758 53.73022461 C0.74739339 51.51219632 0.71932306 49.29408628 0.6965332 47.07592773 C0.66275673 43.87578701 0.61042922 40.67638712 0.5546875 37.4765625 C0.54829758 36.49494644 0.54190765 35.51333038 0.5353241 34.50196838 C0.37742107 27.00099217 -0.4945293 20.28403681 -5.39453125 14.37890625 C-11.54645149 9.42736069 -17.25516763 9.72025701 -24.95703125 10.31640625 C-30.45060647 12.01442041 -33.76089572 15.66657668 -36.95703125 20.31640625 C-40.05969733 27.40821443 -40.12151514 35.12481558 -40.2734375 42.75 C-40.2942186 43.62793716 -40.31499969 44.50587433 -40.33641052 45.41041565 C-40.4013507 48.1915061 -40.46053052 50.9726841 -40.51953125 53.75390625 C-40.56276939 55.64909729 -40.6063853 57.54427975 -40.65039062 59.43945312 C-40.75697447 64.06501638 -40.85839533 68.69066696 -40.95703125 73.31640625 C-45.24703125 73.31640625 -49.53703125 73.31640625 -53.95703125 73.31640625 C-53.95703125 48.56640625 -53.95703125 23.81640625 -53.95703125 -1.68359375 C-49.99703125 -1.68359375 -46.03703125 -1.68359375 -41.95703125 -1.68359375 C-41.29703125 0.62640625 -40.63703125 2.93640625 -39.95703125 5.31640625 C-39.44914062 4.90648437 -38.94125 4.4965625 -38.41796875 4.07421875 C-37.38542969 3.26597656 -37.38542969 3.26597656 -36.33203125 2.44140625 C-35.65914062 1.90773438 -34.98625 1.3740625 -34.29296875 0.82421875 C-25.21168254 -5.03761482 -9.54825265 -4.71660673 0 0 Z " fill="#000000" transform="translate(1819.95703125,1249.68359375)"/>
<path d="M0 0 C7.73493493 4.5789103 11.21448091 10.1691301 13.64785767 18.65838623 C14.718224 23.70963002 14.61630747 28.70859846 14.54296875 33.8515625 C14.53872391 34.99160736 14.53447906 36.13165222 14.53010559 37.3062439 C14.51344334 40.91274613 14.47581395 44.51866943 14.4375 48.125 C14.42243709 50.58462729 14.40875151 53.04426343 14.39648438 55.50390625 C14.36358057 61.50282392 14.31188465 67.50131414 14.25 73.5 C9.96 73.5 5.67 73.5 1.25 73.5 C1.23541748 72.05753906 1.22083496 70.61507813 1.20581055 69.12890625 C1.14763828 63.75382263 1.07040617 58.37914963 0.98754883 53.00439453 C0.95438847 50.68252245 0.92632913 48.36057149 0.90356445 46.03857422 C0.86985528 42.69204232 0.81752991 39.34622756 0.76171875 36 C0.75532883 34.9694751 0.7489389 33.9389502 0.74235535 32.87719727 C0.61392901 26.51618964 0.35258927 19.9102838 -4.16596985 14.94360352 C-9.6058891 10.20058041 -14.50233506 10.09439719 -21.4453125 10.15625 C-27.71519168 10.80843601 -31.20384576 13.6283396 -35.125 18.375 C-38.68823987 25.22738437 -39.07154448 31.43292113 -39.1640625 39.02734375 C-39.18342865 40.01626114 -39.2027948 41.00517853 -39.2227478 42.02406311 C-39.28220622 45.16178951 -39.32879356 48.29955328 -39.375 51.4375 C-39.41321084 53.57358311 -39.45226436 55.70965133 -39.4921875 57.84570312 C-39.58787992 63.06368014 -39.67203495 68.28172923 -39.75 73.5 C-44.04 73.5 -48.33 73.5 -52.75 73.5 C-52.75 48.75 -52.75 24 -52.75 -1.5 C-49.12 -1.5 -45.49 -1.5 -41.75 -1.5 C-41.09 0.81 -40.43 3.12 -39.75 5.5 C-39.16992188 5.09007812 -38.58984375 4.68015625 -37.9921875 4.2578125 C-37.21101563 3.71898437 -36.42984375 3.18015625 -35.625 2.625 C-34.85929687 2.09132813 -34.09359375 1.55765625 -33.3046875 1.0078125 C-23.78251928 -4.61230514 -9.93152461 -4.5799512 0 0 Z " fill="#000000" transform="translate(1660.75,1249.5)"/>
<path d="M0 0 C0.74926758 0.00161133 1.49853516 0.00322266 2.27050781 0.00488281 C9.74167352 0.16947437 15.19664245 2.24298547 21.5625 6.0625 C30.01220927 14.9950498 31.05813949 25.57056812 30.9453125 37.3125 C30.9424826 38.43317871 30.93965271 39.55385742 30.93673706 40.70849609 C30.92560251 44.26410911 30.90051014 47.81946398 30.875 51.375 C30.86496152 53.79556926 30.85583719 56.2161425 30.84765625 58.63671875 C30.82568516 64.54957761 30.79120166 70.46224513 30.75 76.375 C26.46 76.375 22.17 76.375 17.75 76.375 C17.73541748 74.96283203 17.72083496 73.55066406 17.70581055 72.09570312 C17.64762889 66.8324309 17.57039696 61.5695776 17.48754883 56.30664062 C17.45439285 54.03327254 17.42633217 51.75982398 17.40356445 49.48632812 C17.3698471 46.20928815 17.31752158 42.93297944 17.26171875 39.65625 C17.25532883 38.64759888 17.2489389 37.63894775 17.24235535 36.59973145 C17.09027917 29.22115455 16.24090086 23.31298563 11.3125 17.5 C5.98020921 13.07810032 1.78421494 12.94372116 -5.046875 13.05859375 C-10.61531183 13.60864666 -13.53939364 15.66439364 -17.5 19.625 C-22.00082965 26.69773231 -22.70749369 33.03055203 -22.76171875 41.21875 C-22.77966995 42.22844849 -22.79762115 43.23814697 -22.81611633 44.27844238 C-22.86994099 47.47725349 -22.90402571 50.67591777 -22.9375 53.875 C-22.97069763 56.05470781 -23.00518953 58.23439631 -23.04101562 60.4140625 C-23.12565151 65.73426859 -23.19259522 71.05443324 -23.25 76.375 C-27.54 76.375 -31.83 76.375 -36.25 76.375 C-36.25 51.625 -36.25 26.875 -36.25 1.375 C-32.62 1.375 -28.99 1.375 -25.25 1.375 C-24.59 3.685 -23.93 5.995 -23.25 8.375 C-22.66992188 7.96507812 -22.08984375 7.55515625 -21.4921875 7.1328125 C-20.71101563 6.59398437 -19.92984375 6.05515625 -19.125 5.5 C-18.35929687 4.96632813 -17.59359375 4.43265625 -16.8046875 3.8828125 C-11.36566206 0.67262317 -6.2328143 -0.01393119 0 0 Z " fill="#000000" transform="translate(2646.25,1246.625)"/>
<path d="M0 0 C0.74926758 0.00161133 1.49853516 0.00322266 2.27050781 0.00488281 C10.52616205 0.18675684 17.78395079 2.40895079 23.75 8.375 C30.66744359 16.71662315 31.19496317 27.21206593 31.04296875 37.60546875 C31.03872391 38.72190262 31.03447906 39.83833649 31.03010559 40.98860168 C31.01346993 44.51349209 30.97584619 48.03778583 30.9375 51.5625 C30.92243363 53.96939272 30.90874867 56.3762945 30.89648438 58.78320312 C30.86361599 64.64736121 30.81193946 70.51107986 30.75 76.375 C26.46 76.375 22.17 76.375 17.75 76.375 C17.73541748 74.96283203 17.72083496 73.55066406 17.70581055 72.09570312 C17.64762889 66.8324309 17.57039696 61.5695776 17.48754883 56.30664062 C17.45439285 54.03327254 17.42633217 51.75982398 17.40356445 49.48632812 C17.3698471 46.20928815 17.31752158 42.93297944 17.26171875 39.65625 C17.25532883 38.64759888 17.2489389 37.63894775 17.24235535 36.59973145 C17.0745188 28.45647799 15.75350014 21.37850014 9.75 15.375 C3.68475721 12.36358575 -4.06037552 12.03634624 -10.51171875 14.09765625 C-16.42731931 17.26718627 -19.36569513 21.8536749 -21.61026001 28.01977539 C-22.79156069 32.36877418 -22.73203809 36.73685378 -22.76171875 41.21875 C-22.77966995 42.22844849 -22.79762115 43.23814697 -22.81611633 44.27844238 C-22.86994099 47.47725349 -22.90402571 50.67591777 -22.9375 53.875 C-22.97069763 56.05470781 -23.00518953 58.23439631 -23.04101562 60.4140625 C-23.12565151 65.73426859 -23.19259522 71.05443324 -23.25 76.375 C-27.54 76.375 -31.83 76.375 -36.25 76.375 C-36.25 51.625 -36.25 26.875 -36.25 1.375 C-32.62 1.375 -28.99 1.375 -25.25 1.375 C-24.59 3.685 -23.93 5.995 -23.25 8.375 C-22.66992188 7.96507812 -22.08984375 7.55515625 -21.4921875 7.1328125 C-20.71101563 6.59398437 -19.92984375 6.05515625 -19.125 5.5 C-18.35929687 4.96632813 -17.59359375 4.43265625 -16.8046875 3.8828125 C-11.36566206 0.67262317 -6.2328143 -0.01393119 0 0 Z " fill="#000000" transform="translate(3491.25,1246.625)"/>
<path d="M0 0 C7.16705213 4.39829155 11.57731275 11.71700436 13.52198792 19.75517273 C14.3419366 24.51792702 14.18302221 29.31009364 14.13671875 34.12890625 C14.13388885 35.24958496 14.13105896 36.37026367 14.12814331 37.52490234 C14.11700876 41.08051536 14.09191639 44.63587023 14.06640625 48.19140625 C14.05636777 50.61197551 14.04724344 53.03254875 14.0390625 55.453125 C14.01709141 61.36598386 13.98260791 67.27865138 13.94140625 73.19140625 C9.65140625 73.19140625 5.36140625 73.19140625 0.94140625 73.19140625 C0.93206055 71.78971191 0.92271484 70.38801758 0.91308594 68.94384766 C0.87299085 63.706554 0.80717799 58.46983574 0.73388672 53.23291016 C0.70578996 50.97322014 0.68451968 48.71343392 0.67041016 46.45361328 C0.64882406 43.19123473 0.60209276 39.92999939 0.55078125 36.66796875 C0.54955261 35.6696402 0.54832397 34.67131165 0.54705811 33.64273071 C0.38644636 25.82139794 -0.9178707 18.3321293 -6.62109375 12.62890625 C-12.36452965 9.24175175 -18.57767671 9.62852805 -25.05859375 10.19140625 C-29.96591101 11.74553082 -33.32013197 14.88810917 -36.05859375 19.19140625 C-38.95947809 25.61726241 -39.52392676 31.03072603 -39.5703125 38.03515625 C-39.5882637 39.04485474 -39.6062149 40.05455322 -39.62471008 41.09484863 C-39.67853474 44.29365974 -39.71261946 47.49232402 -39.74609375 50.69140625 C-39.77929138 52.87111406 -39.81378328 55.05080256 -39.84960938 57.23046875 C-39.93424526 62.55067484 -40.00118897 67.87083949 -40.05859375 73.19140625 C-44.34859375 73.19140625 -48.63859375 73.19140625 -53.05859375 73.19140625 C-53.05859375 48.44140625 -53.05859375 23.69140625 -53.05859375 -1.80859375 C-49.42859375 -1.80859375 -45.79859375 -1.80859375 -42.05859375 -1.80859375 C-41.39859375 0.50140625 -40.73859375 2.81140625 -40.05859375 5.19140625 C-39.47851562 4.78148437 -38.8984375 4.3715625 -38.30078125 3.94921875 C-37.51960938 3.41039062 -36.7384375 2.8715625 -35.93359375 2.31640625 C-35.16789062 1.78273438 -34.4021875 1.2490625 -33.61328125 0.69921875 C-24.14613596 -4.88842358 -9.85487171 -4.78569912 0 0 Z " fill="#000000" transform="translate(2877.05859375,1249.80859375)"/>
<path d="M0 0 C0.60070313 0.41507813 1.20140625 0.83015625 1.8203125 1.2578125 C2.46226563 1.69351562 3.10421875 2.12921875 3.765625 2.578125 C9.35498633 6.85784518 12.39429707 12.40830085 13.8203125 19.2578125 C13.9059316 21.05988756 13.93805308 22.86484238 13.93383789 24.66894531 C13.93372459 26.29017303 13.93372459 26.29017303 13.93360901 27.94415283 C13.92844772 29.10469177 13.92328644 30.26523071 13.91796875 31.4609375 C13.9165538 32.65386414 13.91513885 33.84679077 13.91368103 35.0758667 C13.90808288 38.88654079 13.89553069 42.69715616 13.8828125 46.5078125 C13.87779726 49.09114498 13.8732344 51.67447839 13.86914062 54.2578125 C13.85811405 60.59116846 13.84085064 66.92448053 13.8203125 73.2578125 C9.8603125 73.2578125 5.9003125 73.2578125 1.8203125 73.2578125 C1.7905835 71.32917358 1.7905835 71.32917358 1.76025391 69.36157227 C1.68377054 64.55864984 1.59512112 59.7560136 1.50292969 54.95336914 C1.46481562 52.88083577 1.42993317 50.80824021 1.3984375 48.7355957 C1.35240309 45.74407835 1.29447437 42.75298273 1.234375 39.76171875 C1.22282379 38.84572403 1.21127258 37.92972931 1.19937134 36.98597717 C0.97393886 26.99924975 -0.24699986 19.19050014 -7.5546875 11.8828125 C-13.87208015 9.05087786 -21.06490108 8.9843405 -27.69140625 11.03515625 C-33.44426125 14.1143034 -36.00655195 19.28868481 -38.1796875 25.2578125 C-39.47294872 30.16456315 -39.40400301 35.11171472 -39.49609375 40.15234375 C-39.51687485 41.09969894 -39.53765594 42.04705414 -39.55906677 43.02311707 C-39.62426528 46.0387776 -39.68330882 49.0545226 -39.7421875 52.0703125 C-39.78540098 54.11914924 -39.82901616 56.16797754 -39.87304688 58.21679688 C-39.97991616 63.23038297 -40.08126681 68.24405373 -40.1796875 73.2578125 C-44.4696875 73.2578125 -48.7596875 73.2578125 -53.1796875 73.2578125 C-53.1796875 48.5078125 -53.1796875 23.7578125 -53.1796875 -1.7421875 C-49.2196875 -1.7421875 -45.2596875 -1.7421875 -41.1796875 -1.7421875 C-40.5196875 0.5678125 -39.8596875 2.8778125 -39.1796875 5.2578125 C-38.67179687 4.84789062 -38.16390625 4.43796875 -37.640625 4.015625 C-36.60808594 3.20738281 -36.60808594 3.20738281 -35.5546875 2.3828125 C-34.88179687 1.84914063 -34.20890625 1.31546875 -33.515625 0.765625 C-24.78360841 -4.87076029 -9.0733745 -5.08820609 0 0 Z " fill="#000000" transform="translate(1903.1796875,1249.7421875)"/>
<path d="M0 0 C0.66 0.40992188 1.32 0.81984375 2 1.2421875 C2.9590625 1.82613281 2.9590625 1.82613281 3.9375 2.421875 C9.58081256 6.53273631 12.63312434 12.80047096 15 19.2421875 C15 20.8921875 15 22.5421875 15 24.2421875 C10.71 24.2421875 6.42 24.2421875 2 24.2421875 C1.46375 23.0253125 0.9275 21.8084375 0.375 20.5546875 C-2.38647483 15.08018476 -5.50920654 12.29598473 -11.25 9.8671875 C-18.19593567 8.70953156 -25.06281969 9.19411002 -31 13.2421875 C-36.65331915 18.47880007 -39.57466665 23.84707619 -40.31640625 31.51171875 C-40.60426301 40.08242161 -39.98939666 47.68408961 -34.1640625 54.33984375 C-28.78266205 59.36042233 -23.73987317 61.77554923 -16.21875 61.55859375 C-10.63040593 60.7616644 -5.59554463 58.7579549 -1.5 54.8671875 C0.363632 51.80501195 0.363632 51.80501195 2 46.2421875 C6.29 46.2421875 10.58 46.2421875 15 46.2421875 C14.70563837 54.18995144 11.82418 60.48108676 6.10546875 66.10546875 C-2.2406478 72.73956139 -11.46351635 74.77841855 -22.01953125 74.02734375 C-32.62428744 72.59794786 -40.43996044 68.96408386 -47.30859375 60.65234375 C-54.87793391 49.86647105 -54.93426393 37.96174721 -54 25.2421875 C-52.35643725 16.50952279 -47.71689619 8.72566392 -40.53515625 3.421875 C-28.98120997 -3.77110809 -12.64453638 -6.36617283 0 0 Z " fill="#000000" transform="translate(3048,1249.7578125)"/>
<path d="M0 0 C7.46725897 4.66876859 12.09292438 9.95110063 15.10546875 18.31640625 C15.60046875 21.28640625 15.60046875 21.28640625 16.10546875 24.31640625 C11.48546875 24.31640625 6.86546875 24.31640625 2.10546875 24.31640625 C1.51765625 22.73859375 1.51765625 22.73859375 0.91796875 21.12890625 C-1.35435793 15.92149093 -4.50528644 12.69309896 -9.76953125 10.50390625 C-16.60377698 8.28532648 -22.03663526 9.1689463 -28.52734375 12 C-34.02736459 15.05859245 -36.76667081 19.24954174 -38.76953125 25.12890625 C-40.97433348 33.8037531 -40.54547188 42.08796052 -36.89453125 50.31640625 C-33.3544171 56.25063606 -28.50168184 59.46465094 -21.89453125 61.31640625 C-15.22775048 62.43329353 -9.60526679 60.84396322 -3.89453125 57.31640625 C-0.64983553 54.07171053 1.17794265 50.46058736 3.10546875 46.31640625 C7.39546875 46.31640625 11.68546875 46.31640625 16.10546875 46.31640625 C14.382517 54.93116499 11.20821188 62.51554226 4.109375 68.03515625 C-5.89662225 74.43275293 -16.64075945 75.26692795 -28.1015625 73.04296875 C-36.74471399 70.79454053 -43.29263319 66.14837889 -48.08203125 58.62890625 C-54.40549134 47.32634372 -56.11522936 34.43647696 -52.70703125 21.81640625 C-49.11251301 11.77538111 -42.5006358 4.05298029 -32.89453125 -0.68359375 C-22.98084966 -4.14915601 -9.58752052 -4.73600411 0 0 Z " fill="#000000" transform="translate(2493.89453125,1249.68359375)"/>
<path d="M0 0 C4.62 0 9.24 0 14 0 C16.34819661 6.3495512 18.69600113 12.69924719 21.04345703 19.04907227 C21.84055221 21.20503569 22.6377508 23.3609609 23.43505859 25.5168457 C24.58719243 28.63222137 25.73894285 31.74773857 26.890625 34.86328125 C27.24183411 35.81270096 27.59304321 36.76212067 27.95489502 37.74031067 C30.32464936 44.15249423 32.66973174 50.57336389 35 57 C40.30833788 43.51111609 45.36681077 29.94204414 50.32763672 16.32202148 C51.24472871 13.80626606 52.16513894 11.29174441 53.0859375 8.77734375 C53.36504974 8.0077684 53.64416199 7.23819305 53.93173218 6.44529724 C55.88680419 1.11319581 55.88680419 1.11319581 57 0 C59.35313555 -0.07271741 61.70833668 -0.08370868 64.0625 -0.0625 C65.99802734 -0.04896484 65.99802734 -0.04896484 67.97265625 -0.03515625 C68.97167969 -0.02355469 69.97070312 -0.01195312 71 0 C61.89878092 25.08765603 52.46284095 50.04690346 43 75 C37.72 75 32.44 75 27 75 C23.47440764 65.66614008 19.95298254 56.33073746 16.43891144 46.99253368 C14.80710153 42.65671043 13.17345995 38.32159579 11.53564453 33.98803711 C9.95575762 29.80755093 8.38066656 25.62528725 6.80891418 21.44173622 C6.20778103 19.84426656 5.60490929 18.24745005 5.00028992 16.65129662 C4.15511564 14.41920798 3.31609804 12.18489762 2.47851562 9.94995117 C2.22604568 9.28748383 1.97357574 8.62501648 1.7134552 7.94247437 C0.66697877 5.13287406 0 3.02779611 0 0 Z " fill="#000000" transform="translate(2241,1248)"/>
<path d="M0 0 C4.95 0 9.9 0 15 0 C15.45850342 1.26481201 15.91700684 2.52962402 16.3894043 3.83276367 C18.11209594 8.58387484 19.83645252 13.33438038 21.5612793 18.0847168 C22.30358641 20.12980268 23.04545875 22.17504643 23.78686523 24.22045898 C27.76157906 35.18509436 31.73793229 46.14295698 36 57 C38.34823437 50.65046278 40.69600113 44.3007528 43.04345703 37.95092773 C43.84055221 35.79496431 44.6377508 33.6390391 45.43505859 31.4831543 C46.58719243 28.36777863 47.73894285 25.25226143 48.890625 22.13671875 C49.24183411 21.18729904 49.59304321 20.23787933 49.95489502 19.25968933 C52.32466041 12.84747586 54.66821489 6.42612543 57 0 C61.62 0 66.24 0 71 0 C70.14075618 4.29621908 69.02277947 7.9099391 67.49975586 11.9934082 C67.246017 12.67688828 66.99227814 13.36036835 66.73085022 14.06455994 C65.89574743 16.3113128 65.05533464 18.55603909 64.21484375 20.80078125 C63.63301759 22.36292988 63.05152508 23.92520282 62.47035217 25.4875946 C60.94313849 29.59053156 59.41140744 33.69176762 57.87872314 37.79266357 C56.31419847 41.98119875 54.75396078 46.17132997 53.19335938 50.36132812 C50.13309457 58.57578612 47.06765962 66.7883007 44 75 C38.72 75 33.44 75 28 75 C21.17619356 57.23278727 14.39196813 39.45122566 7.70022583 21.63378906 C7.02408046 19.83361441 6.347382 18.0336474 5.6701355 16.23388672 C4.71974265 13.70735986 3.77160364 11.1799998 2.82421875 8.65234375 C2.53734192 7.89038193 2.25046509 7.1284201 1.95489502 6.34336853 C0 1.11483452 0 1.11483452 0 0 Z " fill="#000000" transform="translate(2010,1248)"/>
<path d="M0 0 C4.29 0 8.58 0 13 0 C13 6.93 13 13.86 13 21 C19.27 21 25.54 21 32 21 C32 24.63 32 28.26 32 32 C25.73 32 19.46 32 13 32 C13.04410805 38.62077074 13.11389585 45.24058378 13.20751953 51.86083984 C13.23574911 54.11304096 13.2569537 56.36534152 13.27099609 58.61767578 C13.2923976 61.85501083 13.33903495 65.09114774 13.390625 68.328125 C13.39185364 69.33554749 13.39308228 70.34296997 13.39434814 71.38092041 C13.44994404 76.83935828 13.44994404 76.83935828 15.79492188 81.62890625 C19.10956022 83.68991255 22.4562379 83.67626964 26.25 83.75 C27.36761719 83.79447266 27.36761719 83.79447266 28.5078125 83.83984375 C30.33796672 83.9102343 32.16898769 83.95741832 34 84 C34 87.96 34 91.92 34 96 C10.00616333 96.70570108 10.00616333 96.70570108 3.5 90.6875 C-0.2463219 83.97533993 -0.26825073 77.98564198 -0.1953125 70.4765625 C-0.1924826 69.37524994 -0.18965271 68.27393738 -0.18673706 67.13925171 C-0.17557478 63.63438892 -0.15047711 60.12978508 -0.125 56.625 C-0.11496511 54.24349328 -0.10584015 51.86198255 -0.09765625 49.48046875 C-0.07564832 43.65354661 -0.04114537 37.82681716 0 32 C-4.29 32 -8.58 32 -13 32 C-13 28.37 -13 24.74 -13 21 C-8.71 21 -4.42 21 0 21 C0 14.07 0 7.14 0 0 Z " fill="#000000" transform="translate(3294,1227)"/>
<path d="M0 0 C4.29 0 8.58 0 13 0 C13 6.93 13 13.86 13 21 C19.27 21 25.54 21 32 21 C32 24.63 32 28.26 32 32 C25.73 32 19.46 32 13 32 C13.04410805 38.62077074 13.11389585 45.24058378 13.20751953 51.86083984 C13.23574911 54.11304096 13.2569537 56.36534152 13.27099609 58.61767578 C13.2923976 61.85501083 13.33903495 65.09114774 13.390625 68.328125 C13.39185364 69.33554749 13.39308228 70.34296997 13.39434814 71.38092041 C13.44994404 76.83935828 13.44994404 76.83935828 15.79492188 81.62890625 C19.10956022 83.68991255 22.4562379 83.67626964 26.25 83.75 C27.36761719 83.79447266 27.36761719 83.79447266 28.5078125 83.83984375 C30.33796672 83.9102343 32.16898769 83.95741832 34 84 C34 87.96 34 91.92 34 96 C10.00616333 96.70570108 10.00616333 96.70570108 3.5 90.6875 C-0.2463219 83.97533993 -0.26825073 77.98564198 -0.1953125 70.4765625 C-0.1924826 69.37524994 -0.18965271 68.27393738 -0.18673706 67.13925171 C-0.17557478 63.63438892 -0.15047711 60.12978508 -0.125 56.625 C-0.11496511 54.24349328 -0.10584015 51.86198255 -0.09765625 49.48046875 C-0.07564832 43.65354661 -0.04114537 37.82681716 0 32 C-4.29 32 -8.58 32 -13 32 C-13 28.37 -13 24.74 -13 21 C-8.71 21 -4.42 21 0 21 C0 14.07 0 7.14 0 0 Z " fill="#000000" transform="translate(2174,1227)"/>
<path d="M0 0 C4.29 0 8.58 0 13 0 C13 6.93 13 13.86 13 21 C19.27 21 25.54 21 32 21 C32 24.63 32 28.26 32 32 C25.73 32 19.46 32 13 32 C13.09344598 38.63884284 13.19952042 45.27731714 13.31738281 51.91577148 C13.35570221 54.17482959 13.39054981 56.43394932 13.421875 58.69311523 C13.46746107 61.93756157 13.52546638 65.18158248 13.5859375 68.42578125 C13.59748871 69.43836502 13.60903992 70.45094879 13.62094116 71.49421692 C13.64081085 72.43496567 13.66068054 73.37571442 13.68115234 74.3449707 C13.69447601 75.17325882 13.70779968 76.00154694 13.7215271 76.85493469 C13.87738759 79.29596133 13.87738759 79.29596133 16 82 C19.56086658 83.18695553 22.97331024 83.35095418 26.6875 83.5625 C27.7403418 83.62727539 27.7403418 83.62727539 28.81445312 83.69335938 C30.54275206 83.7991736 32.2713511 83.90006581 34 84 C34 87.96 34 91.92 34 96 C10.22764228 96.69918699 10.22764228 96.69918699 3.5 90.8125 C-0.28367285 83.71811341 -0.27562643 76.56647923 -0.1953125 68.71875 C-0.1924826 67.66465942 -0.18965271 66.61056885 -0.18673706 65.52453613 C-0.17560986 62.1829049 -0.15051904 58.84154919 -0.125 55.5 C-0.11496056 53.22396222 -0.1058364 50.94792022 -0.09765625 48.671875 C-0.07569495 43.1144784 -0.04121675 37.55728579 0 32 C-4.29 32 -8.58 32 -13 32 C-13 28.37 -13 24.74 -13 21 C-8.71 21 -4.42 21 0 21 C0 14.07 0 7.14 0 0 Z " fill="#000000" transform="translate(3783,1227)"/>
<path d="M0 0 C4.29 0 8.58 0 13 0 C13 6.93 13 13.86 13 21 C19.27 21 25.54 21 32 21 C32 24.63 32 28.26 32 32 C25.73 32 19.46 32 13 32 C13.09354412 38.47812053 13.19964107 44.95586775 13.31738281 51.43359375 C13.35566886 53.63731247 13.39052237 55.84109361 13.421875 58.04492188 C13.4675333 61.21246652 13.52552702 64.37958162 13.5859375 67.546875 C13.59748871 68.53242371 13.60903992 69.51797241 13.62094116 70.53338623 C13.64081085 71.4540387 13.66068054 72.37469116 13.68115234 73.32324219 C13.69447601 74.1315448 13.70779968 74.93984741 13.7215271 75.77264404 C14.03531593 78.28247327 14.60799467 79.88952505 16 82 C19.56086658 83.18695553 22.97331024 83.35095418 26.6875 83.5625 C27.7403418 83.62727539 27.7403418 83.62727539 28.81445312 83.69335938 C30.54275206 83.7991736 32.2713511 83.90006581 34 84 C34 87.96 34 91.92 34 96 C12.03156739 96.63985726 12.03156739 96.63985726 4.0625 90.875 C-0.72822219 84.19702362 -0.27861537 75.76145924 -0.1953125 67.83984375 C-0.1924826 66.80936417 -0.18965271 65.77888458 -0.18673706 64.71717834 C-0.17562863 61.45716257 -0.15054163 58.19743138 -0.125 54.9375 C-0.11495813 52.7141967 -0.1058344 50.49088906 -0.09765625 48.26757812 C-0.07571992 42.84494405 -0.0412552 37.42252011 0 32 C-4.29 32 -8.58 32 -13 32 C-13 28.37 -13 24.74 -13 21 C-8.71 21 -4.42 21 0 21 C0 14.07 0 7.14 0 0 Z " fill="#000000" transform="translate(2912,1227)"/>
<path d="M0 0 C4.29 0 8.58 0 13 0 C13 6.93 13 13.86 13 21 C19.27 21 25.54 21 32 21 C32 24.63 32 28.26 32 32 C25.73 32 19.46 32 13 32 C13.09354412 38.47812053 13.19964107 44.95586775 13.31738281 51.43359375 C13.35566886 53.63731247 13.39052237 55.84109361 13.421875 58.04492188 C13.4675333 61.21246652 13.52552702 64.37958162 13.5859375 67.546875 C13.59748871 68.53242371 13.60903992 69.51797241 13.62094116 70.53338623 C13.64081085 71.4540387 13.66068054 72.37469116 13.68115234 73.32324219 C13.69447601 74.1315448 13.70779968 74.93984741 13.7215271 75.77264404 C14.03531593 78.28247327 14.60799467 79.88952505 16 82 C19.56086658 83.18695553 22.97331024 83.35095418 26.6875 83.5625 C27.7403418 83.62727539 27.7403418 83.62727539 28.81445312 83.69335938 C30.54275206 83.7991736 32.2713511 83.90006581 34 84 C34 87.96 34 91.92 34 96 C11.59516616 96.65256798 11.59516616 96.65256798 4.5625 91.0625 C-0.66954229 84.15620418 -0.14070145 76.44864146 -0.09765625 68.1328125 C-0.0962413 67.09808807 -0.09482635 66.06336365 -0.09336853 64.99728394 C-0.08779039 61.70649268 -0.07524188 58.41577054 -0.0625 55.125 C-0.05748218 52.88802182 -0.05291976 50.65104257 -0.04882812 48.4140625 C-0.03782811 42.94268188 -0.02057852 37.47135264 0 32 C-4.29 32 -8.58 32 -13 32 C-13 28.37 -13 24.74 -13 21 C-8.71 21 -4.42 21 0 21 C0 14.07 0 7.14 0 0 Z " fill="#000000" transform="translate(2698,1227)"/>
<path d="M0 0 C0.93457031 0.00322266 1.86914062 0.00644531 2.83203125 0.00976562 C3.80011719 0.01814453 4.76820313 0.02652344 5.765625 0.03515625 C6.74917969 0.03966797 7.73273437 0.04417969 8.74609375 0.04882812 C11.16929694 0.06059125 13.59246877 0.07852607 16.015625 0.09765625 C16.015625 4.05765625 16.015625 8.01765625 16.015625 12.09765625 C14.82324219 12.13503906 13.63085938 12.17242188 12.40234375 12.2109375 C10.835906 12.27659657 9.26950116 12.34304393 7.703125 12.41015625 C6.91744141 12.43271484 6.13175781 12.45527344 5.32226562 12.47851562 C4.56494141 12.51396484 3.80761719 12.54941406 3.02734375 12.5859375 C1.98259888 12.62521362 1.98259888 12.62521362 0.91674805 12.6652832 C-1.53785239 13.2235338 -2.45390368 14.12624121 -3.984375 16.09765625 C-4.56384781 19.06009351 -4.56384781 19.06009351 -4.671875 22.28515625 C-4.775 24.20328125 -4.878125 26.12140625 -4.984375 28.09765625 C1.945625 28.09765625 8.875625 28.09765625 16.015625 28.09765625 C16.015625 31.72765625 16.015625 35.35765625 16.015625 39.09765625 C9.085625 39.09765625 2.155625 39.09765625 -4.984375 39.09765625 C-4.984375 60.21765625 -4.984375 81.33765625 -4.984375 103.09765625 C-9.274375 103.09765625 -13.564375 103.09765625 -17.984375 103.09765625 C-18.05395158 91.48404726 -18.10722527 79.87048805 -18.13981152 68.25671291 C-18.15545298 62.86369389 -18.17666369 57.47081769 -18.21069336 52.07788086 C-18.24334072 46.87129885 -18.26123944 41.66485405 -18.26900673 36.45817757 C-18.27454056 34.47389632 -18.28534681 32.48962239 -18.30156517 30.5053997 C-18.32341079 27.72145358 -18.32633893 24.93807108 -18.32495117 22.15405273 C-18.335737 21.3376532 -18.34652283 20.52125366 -18.3576355 19.68011475 C-18.32627809 13.84890009 -17.39599201 8.96587275 -13.51953125 4.35546875 C-8.86662295 0.77630852 -5.76821882 -0.03517207 0 0 Z " fill="#000000" transform="translate(3844.984375,1219.90234375)"/>
<path d="M0 0 C4.29 0 8.58 0 13 0 C13 33.99 13 67.98 13 103 C8.71 103 4.42 103 0 103 C0 69.01 0 35.02 0 0 Z " fill="#000000" transform="translate(3667,1220)"/>
<path d="M0 0 C4.29 0 8.58 0 13 0 C13 33.99 13 67.98 13 103 C8.71 103 4.42 103 0 103 C0 69.01 0 35.02 0 0 Z " fill="#000000" transform="translate(1734,1220)"/>
<path d="M0 0 C3.96 0 7.92 0 12 0 C12.66 2.64 13.32 5.28 14 8 C14.44730469 7.59007812 14.89460938 7.18015625 15.35546875 6.7578125 C15.96003906 6.21898437 16.56460938 5.68015625 17.1875 5.125 C17.77917969 4.59132813 18.37085937 4.05765625 18.98046875 3.5078125 C23.46294752 0.16112622 27.29784935 -0.23640708 32.8125 -0.125 C34.55466797 -0.09792969 34.55466797 -0.09792969 36.33203125 -0.0703125 C37.65267578 -0.03550781 37.65267578 -0.03550781 39 0 C39 3.96 39 7.92 39 12 C38.05898437 12.09796875 37.11796875 12.1959375 36.1484375 12.296875 C26.7225692 13.12328044 26.7225692 13.12328044 19 18 C14.53365794 25.76881649 13.84411303 33.10843408 13.68359375 41.89453125 C13.66281265 42.84188644 13.64203156 43.78924164 13.62062073 44.76530457 C13.55542222 47.7809651 13.49637868 50.7967101 13.4375 53.8125 C13.39428652 55.86133674 13.35067134 57.91016504 13.30664062 59.95898438 C13.19977134 64.97257047 13.09842069 69.98624123 13 75 C8.71 75 4.42 75 0 75 C0 50.25 0 25.5 0 0 Z " fill="#000000" transform="translate(3953,1248)"/>
<path d="M0 0 C3.96 0 7.92 0 12 0 C12.66 2.64 13.32 5.28 14 8 C14.44730469 7.59007812 14.89460938 7.18015625 15.35546875 6.7578125 C15.96003906 6.21898437 16.56460938 5.68015625 17.1875 5.125 C17.77917969 4.59132813 18.37085937 4.05765625 18.98046875 3.5078125 C23.46294752 0.16112622 27.29784935 -0.23640708 32.8125 -0.125 C34.55466797 -0.09792969 34.55466797 -0.09792969 36.33203125 -0.0703125 C37.65267578 -0.03550781 37.65267578 -0.03550781 39 0 C39 3.96 39 7.92 39 12 C38.05898437 12.09796875 37.11796875 12.1959375 36.1484375 12.296875 C26.7225692 13.12328044 26.7225692 13.12328044 19 18 C14.53365794 25.76881649 13.84411303 33.10843408 13.68359375 41.89453125 C13.66281265 42.84188644 13.64203156 43.78924164 13.62062073 44.76530457 C13.55542222 47.7809651 13.49637868 50.7967101 13.4375 53.8125 C13.39428652 55.86133674 13.35067134 57.91016504 13.30664062 59.95898438 C13.19977134 64.97257047 13.09842069 69.98624123 13 75 C8.71 75 4.42 75 0 75 C0 50.25 0 25.5 0 0 Z " fill="#000000" transform="translate(3078,1248)"/>
<path d="M0 0 C4.29 0 8.58 0 13 0 C13 24.75 13 49.5 13 75 C8.71 75 4.42 75 0 75 C0 50.25 0 25.5 0 0 Z " fill="#000000" transform="translate(3338,1248)"/>
<path d="M0 0 C4.29 0 8.58 0 13 0 C13 24.75 13 49.5 13 75 C8.71 75 4.42 75 0 75 C0 50.25 0 25.5 0 0 Z " fill="#000000" transform="translate(2218,1248)"/>
<path d="M0 0 C2.5 1.5 2.5 1.5 4 4 C4.791013 8.02098277 4.62153384 10.96411027 2.5 14.5 C-1.03588973 16.62153384 -3.97901723 16.791013 -8 16 C-10.5 14.5 -10.5 14.5 -12 12 C-12.791013 7.97901723 -12.62153384 5.03588973 -10.5 1.5 C-6.96411027 -0.62153384 -4.02098277 -0.791013 0 0 Z " fill="#000000" transform="translate(3348,1219)"/>
<path d="M0 0 C2.5 1.5 2.5 1.5 4 4 C4.791013 8.02098277 4.62153384 10.96411027 2.5 14.5 C-1.03588973 16.62153384 -3.97901723 16.791013 -8 16 C-10.5 14.5 -10.5 14.5 -12 12 C-12.791013 7.97901723 -12.62153384 5.03588973 -10.5 1.5 C-6.96411027 -0.62153384 -4.02098277 -0.791013 0 0 Z " fill="#000000" transform="translate(2228,1219)"/>
</svg>
